<svg xmlns="http://www.w3.org/2000/svg" width="50" height="48" viewBox="0 0 50 48">
  <defs>
    <style>
      .cls-1 {
        fill-rule: evenodd;
      }
    </style>
  </defs>
  <path id="copy" class="cls-1" d="M29.865,35.94v8.806H3.108V17.9h10.77V14.915H2.027A2.03,2.03,0,0,0,0,16.949V45.966A2.03,2.03,0,0,0,2.027,48H30.946a2.031,2.031,0,0,0,2.027-2.034V35.932Zm18.108-2.856A2.03,2.03,0,0,0,50,31.051V2.034A2.03,2.03,0,0,0,47.973,0H19.054a2.031,2.031,0,0,0-2.027,2.034V31.051a2.031,2.031,0,0,0,2.027,2.034H47.973ZM20.135,29.831h9.73V17.9h-9.73V29.831ZM46.892,2.983H20.135V14.915H30.946a2.031,2.031,0,0,1,2.027,2.034V29.831H46.892V2.983Z"/>
</svg>
