<svg width="26" height="25" viewBox="0 0 26 25" fill="none" xmlns="http://www.w3.org/2000/svg">
<path d="M17.6377 11.1661C17.7134 11.2386 17.7734 11.3249 17.8144 11.4198C17.8553 11.5148 17.8764 11.6165 17.8764 11.7193C17.8764 11.8221 17.8553 11.9239 17.8144 12.0188C17.7734 12.1138 17.7134 12.2 17.6377 12.2726L12.7627 16.9612C12.6872 17.034 12.5976 17.0918 12.4989 17.1311C12.4002 17.1705 12.2943 17.1908 12.1875 17.1908C12.0806 17.1908 11.9748 17.1705 11.8761 17.1311C11.7774 17.0918 11.6877 17.034 11.6122 16.9612L9.17472 14.6169C9.09917 14.5443 9.03925 14.458 8.99837 14.3631C8.95748 14.2681 8.93644 14.1664 8.93644 14.0637C8.93644 13.9609 8.95748 13.8592 8.99837 13.7642C9.03925 13.6693 9.09917 13.583 9.17472 13.5104C9.32728 13.3637 9.53421 13.2812 9.74997 13.2812C9.8568 13.2812 9.96259 13.3015 10.0613 13.3408C10.16 13.3801 10.2497 13.4377 10.3252 13.5104L12.1875 15.303L16.4872 11.1661C16.5627 11.0933 16.6524 11.0355 16.7511 10.9962C16.8498 10.9568 16.9556 10.9365 17.0625 10.9365C17.1693 10.9365 17.2752 10.9568 17.3739 10.9962C17.4726 11.0355 17.5622 11.0933 17.6377 11.1661Z" fill="white"/>
<path d="M5.6875 0C5.90299 0 6.10965 0.08231 6.26202 0.228823C6.4144 0.375336 6.5 0.57405 6.5 0.78125V1.5625H19.5V0.78125C19.5 0.57405 19.5856 0.375336 19.738 0.228823C19.8903 0.08231 20.097 0 20.3125 0C20.528 0 20.7347 0.08231 20.887 0.228823C21.0394 0.375336 21.125 0.57405 21.125 0.78125V1.5625H22.75C23.612 1.5625 24.4386 1.89174 25.0481 2.47779C25.6576 3.06384 26 3.8587 26 4.6875V21.875C26 22.7038 25.6576 23.4987 25.0481 24.0847C24.4386 24.6708 23.612 25 22.75 25H3.25C2.38805 25 1.5614 24.6708 0.951903 24.0847C0.34241 23.4987 0 22.7038 0 21.875V4.6875C0 3.8587 0.34241 3.06384 0.951903 2.47779C1.5614 1.89174 2.38805 1.5625 3.25 1.5625H4.875V0.78125C4.875 0.57405 4.9606 0.375336 5.11298 0.228823C5.26535 0.08231 5.47201 0 5.6875 0ZM1.625 6.25V21.875C1.625 22.2894 1.7962 22.6868 2.10095 22.9799C2.4057 23.2729 2.81902 23.4375 3.25 23.4375H22.75C23.181 23.4375 23.5943 23.2729 23.899 22.9799C24.2038 22.6868 24.375 22.2894 24.375 21.875V6.25H1.625Z" fill="white"/>
</svg>
