<svg width="29" height="29" viewBox="0 0 29 29" fill="none" xmlns="http://www.w3.org/2000/svg">
<path d="M11.4902 0C5.15104 0 0 5.03372 0 11.2285C0 17.4232 5.15104 22.4569 11.4902 22.4569C13.9984 22.4569 16.3165 21.6674 18.2068 20.331L27.0991 29L29 27.1423L20.2134 18.5352C21.9401 16.5692 22.9803 14.0175 22.9803 11.2285C22.9803 5.03372 17.8293 0 11.4902 0ZM11.4902 1.321C17.098 1.321 21.6286 5.7484 21.6286 11.2285C21.6286 16.7085 17.098 21.1359 11.4902 21.1359C5.88237 21.1359 1.35178 16.7085 1.35178 11.2285C1.35178 5.7484 5.88237 1.321 11.4902 1.321Z" fill="white"/>
</svg>
