<svg width="11" height="15" viewBox="0 0 11 15" fill="none" xmlns="http://www.w3.org/2000/svg">
<path d="M5.71091 14.7965C5.45437 14.7965 5.19783 14.7965 4.94129 14.7965C4.77403 14.767 4.60651 14.7396 4.43951 14.7078C3.11552 14.4544 2.03242 13.725 1.1897 12.5601C0.30414 11.336 -0.0750206 9.9208 0.0122016 8.34267C0.0645352 7.39741 0.308758 6.53074 0.805154 5.76291C0.979342 5.49358 1.17431 5.24101 1.35799 4.98323C1.28026 5.34649 1.18329 5.695 1.13455 6.05189C1.06426 6.56511 1.14558 7.05841 1.39339 7.5058C1.7074 8.07306 2.27331 8.21843 2.72585 7.85224C3.13964 7.51735 3.29151 7.06161 3.21506 6.503C3.17221 6.18974 3.10782 5.87966 3.07704 5.56496C2.96545 4.42838 3.37565 3.5178 4.0878 2.76182C4.341 2.49306 4.64294 2.28297 4.92179 2.04427C5.19808 1.80788 5.39023 1.51109 5.42743 1.11172C5.46258 0.734022 5.42178 0.363252 5.3261 0C5.33456 0 5.34328 0 5.35175 0C5.44256 0.0835161 5.53389 0.166744 5.62394 0.251127C6.0159 0.617847 6.31938 1.04959 6.38839 1.63853C6.43639 2.04832 6.38174 2.45318 6.30891 2.85545C6.21604 3.36868 6.11548 3.88105 6.19242 4.41192C6.27399 4.97543 6.48334 5.45515 6.89816 5.79961C7.51022 6.30822 8.26499 6.13801 8.64467 5.39908C8.91892 4.86533 8.94607 4.27609 8.90942 3.6779C8.9045 3.59929 8.89859 3.52069 8.89321 3.44208C8.90629 3.43313 8.91915 3.42388 8.93223 3.41492C8.94352 3.44064 8.95174 3.46867 8.96633 3.49179C9.15339 3.78973 9.36372 4.07236 9.52507 4.38677C10.0348 5.38145 10.3596 6.45648 10.5525 7.58204C10.6933 8.40306 10.7023 9.22493 10.543 10.045C10.2831 11.3845 9.68492 12.4957 8.7593 13.3823C8.02768 14.0833 7.18422 14.5197 6.2381 14.7044C6.06285 14.7391 5.88662 14.7662 5.71091 14.7965ZM8.52795 10.2211C8.42889 10.7054 8.17931 11.064 7.81602 11.3273C7.27806 11.7172 6.67984 11.8608 6.04849 11.8613C5.69012 11.8619 5.34097 11.8024 5.01158 11.6374C4.91153 11.5874 4.82072 11.5134 4.6963 11.4307C4.74735 11.425 4.75633 11.4209 4.76352 11.4232C5.74169 11.7576 6.57875 11.4692 7.28038 10.6655C7.95636 9.89132 8.00511 8.79867 7.38789 7.9725C7.14855 7.65228 6.84327 7.39193 6.55519 7.122C6.18756 6.77785 5.79451 6.46775 5.43564 6.11316C5.11907 5.80077 4.91872 5.39475 4.88101 4.91215C4.86305 4.68183 4.87793 4.44833 4.87793 4.21945C4.88768 4.21743 4.87665 4.21598 4.87203 4.22118C4.34715 4.81736 4.09267 5.53548 4.35767 6.39001C4.5157 6.89948 4.78994 7.33904 5.01979 7.80548C5.1478 8.06524 5.2712 8.33315 5.35662 8.61261C5.48746 9.04083 5.39382 9.42841 5.10625 9.75117C4.86844 10.0179 4.58035 10.1766 4.25275 10.2425C3.63193 10.3676 3.09731 10.1962 2.69788 9.62433C2.57885 9.45378 2.49522 9.25213 2.39517 9.06398C2.39286 9.06574 2.38362 9.06861 2.38004 9.07526C2.369 9.09574 2.35925 9.11746 2.35079 9.13937C2.08348 9.83472 2.02524 10.5453 2.26485 11.2617C2.60707 12.2853 3.29818 12.8947 4.19682 13.2141C5.07674 13.5267 5.96333 13.4785 6.8248 13.1202C7.67262 12.7676 8.2632 12.1206 8.48766 11.1048C8.55128 10.8161 8.57821 10.5216 8.52795 10.2211Z" fill="#D91B5C"/>
</svg>
