<svg width="29" height="29" viewBox="0 0 29 29" fill="none" xmlns="http://www.w3.org/2000/svg">
<path d="M25.6512 23.7487C27.1397 21.9593 28.1749 19.838 28.6694 17.5643C29.1638 15.2906 29.1029 12.9313 28.4918 10.6861C27.8807 8.44083 26.7374 6.37568 25.1585 4.66533C23.5797 2.95497 21.6118 1.64973 19.4214 0.860009C17.2309 0.0702879 14.8823 -0.180676 12.5742 0.128349C10.2662 0.437373 8.06654 1.29729 6.16143 2.63537C4.25632 3.97344 2.70178 5.7503 1.6293 7.81563C0.556822 9.88097 -0.00203414 12.174 5.56332e-06 14.5008C0.000788267 17.8833 1.19374 21.1574 3.36952 23.7487L3.34879 23.7663C3.42134 23.8533 3.50426 23.9279 3.57888 24.0139C3.67216 24.1205 3.7727 24.221 3.86909 24.3245C4.1593 24.6394 4.4578 24.9418 4.77081 25.2255C4.86616 25.3125 4.96462 25.3933 5.06101 25.4761C5.39268 25.762 5.73367 26.0333 6.0871 26.286C6.13271 26.317 6.17417 26.3574 6.21977 26.3895V26.3771C8.64725 28.084 11.5431 29 14.5114 29C17.4797 29 20.3756 28.084 22.803 26.3771V26.3895C22.8486 26.3574 22.8891 26.317 22.9357 26.286C23.2881 26.0323 23.6301 25.762 23.9618 25.4761C24.0582 25.3933 24.1567 25.3115 24.252 25.2255C24.565 24.9407 24.8635 24.6394 25.1537 24.3245C25.2501 24.221 25.3496 24.1205 25.4439 24.0139C25.5175 23.9279 25.6015 23.8533 25.674 23.7653L25.6512 23.7487ZM14.5104 6.21596C15.4328 6.21596 16.3346 6.48928 17.1016 7.00135C17.8686 7.51342 18.4664 8.24125 18.8194 9.09279C19.1724 9.94434 19.2648 10.8814 19.0848 11.7853C18.9048 12.6893 18.4606 13.5197 17.8083 14.1715C17.1561 14.8232 16.325 15.267 15.4203 15.4469C14.5155 15.6267 13.5778 15.5344 12.7255 15.1817C11.8733 14.8289 11.1449 14.2316 10.6324 13.4653C10.1199 12.6989 9.84632 11.7979 9.84632 10.8762C9.84632 9.64022 10.3377 8.45487 11.2124 7.58091C12.0871 6.70695 13.2734 6.21596 14.5104 6.21596ZM6.22599 23.7487C6.24397 22.389 6.79702 21.0909 7.76549 20.1355C8.73397 19.18 10.04 18.6439 11.401 18.6432H17.6197C18.9808 18.6439 20.2868 19.18 21.2552 20.1355C22.2237 21.0909 22.7768 22.389 22.7948 23.7487C20.5216 25.7954 17.5703 26.9281 14.5104 26.9281C11.4505 26.9281 8.4991 25.7954 6.22599 23.7487Z" fill="white"/>
</svg>
