<svg xmlns="http://www.w3.org/2000/svg" width="29.062" height="32.062" viewBox="0 0 29.062 32.062">
  <defs>
    <style>
      .cls-1 {
        fill-rule: evenodd;
      }
    </style>
  </defs>
  <path id="outlink" class="cls-1" d="M135.457,157.061H113.6a3.6,3.6,0,0,1-3.6-3.6V128.6a3.6,3.6,0,0,1,3.6-3.6h9.006v3.7h-6.78a2.041,2.041,0,0,0-2.041,2.041v20.583a2.041,2.041,0,0,0,2.041,2.041h17.4a2.041,2.041,0,0,0,2.041-2.041V140.37h3.787v13.089A3.6,3.6,0,0,1,135.457,157.061Zm-0.185-25.807-9.809,9.809-2.717-2.717L132.4,128.7H125.13V125h13.929v12.848h-3.787v-6.594Z" transform="translate(-110 -125)"/>
</svg>
