<svg width="9" height="15" viewBox="0 0 9 15" fill="none" xmlns="http://www.w3.org/2000/svg">
<path d="M3.72799 14.625V12.9229C3.02869 12.7646 2.42518 12.4611 1.91745 12.0125C1.4092 11.5639 1.03633 10.9306 0.798828 10.1125L2.26341 9.51875C2.46133 10.1521 2.75504 10.6337 3.14454 10.9635C3.53351 11.2934 4.04466 11.4583 4.678 11.4583C5.21897 11.4583 5.67761 11.3364 6.05391 11.0926C6.42969 10.8482 6.61758 10.4688 6.61758 9.95417C6.61758 9.49236 6.47244 9.12608 6.18216 8.85533C5.89188 8.58511 5.21897 8.27847 4.16341 7.93542C3.02869 7.57917 2.25022 7.15378 1.82799 6.65925C1.40577 6.16419 1.19466 5.56042 1.19466 4.84792C1.19466 3.99028 1.47174 3.32396 2.02591 2.84896C2.58008 2.37396 3.14744 2.10347 3.72799 2.0375V0.375H5.31133V2.0375C5.97105 2.14306 6.51545 2.38372 6.94454 2.7595C7.37309 3.13581 7.68633 3.59444 7.88424 4.13542L6.41966 4.76875C6.26133 4.34653 6.03702 4.02986 5.74675 3.81875C5.45647 3.60764 5.06063 3.50208 4.55924 3.50208C3.97869 3.50208 3.53668 3.63086 3.2332 3.88842C2.92973 4.14544 2.77799 4.46528 2.77799 4.84792C2.77799 5.28333 2.97591 5.62639 3.37174 5.87708C3.76758 6.12778 4.45369 6.39167 5.43008 6.66875C6.3405 6.93264 7.03004 7.35143 7.4987 7.92513C7.96684 8.49935 8.20091 9.1625 8.20091 9.91458C8.20091 10.8514 7.92383 11.5639 7.36966 12.0521C6.8155 12.5403 6.12938 12.8438 5.31133 12.9625V14.625H3.72799Z" fill="#D91B5C"/>
</svg>
