<svg width="28" height="28" viewBox="0 0 28 28" fill="none" xmlns="http://www.w3.org/2000/svg">
<path d="M23.125 0H4.625C2.00417 0 0 2.00417 0 4.625V23.125C0 25.7458 2.00417 27.75 4.625 27.75H23.125C25.7458 27.75 27.75 25.7458 27.75 23.125V4.625C27.75 2.00417 25.7458 0 23.125 0ZM13.875 9.25C16.4958 9.25 18.5 11.2542 18.5 13.875C18.5 16.4958 16.4958 18.5 13.875 18.5C11.2542 18.5 9.25 16.4958 9.25 13.875C9.25 11.2542 11.2542 9.25 13.875 9.25ZM19.7333 6.16667C19.7333 5.0875 20.6583 4.31667 21.5833 4.31667C22.5083 4.31667 23.4333 5.24167 23.4333 6.16667C23.4333 7.09167 22.6625 8.01667 21.5833 8.01667C20.5042 8.01667 19.7333 7.24583 19.7333 6.16667V6.16667ZM23.125 24.6667H4.625C3.7 24.6667 3.08333 24.05 3.08333 23.125V13.875H6.16667C6.16667 18.1917 9.55833 21.5833 13.875 21.5833C18.1917 21.5833 21.5833 18.1917 21.5833 13.875H24.6667V23.125C24.6667 24.05 24.05 24.6667 23.125 24.6667Z" fill="white"/>
</svg>
