<svg xmlns="http://www.w3.org/2000/svg" width="19.969" height="19" viewBox="0 0 19.969 19">
  <defs>
    <style>
      .cls-1 {
        fill-rule: evenodd;
      }
    </style>
  </defs>
  <path id="star" class="cls-1" d="M11.021,0.69C11.43,1.424,12.77,3.848,13.19,4.57a1.567,1.567,0,0,0,1.537,1.025c0.839,0.161,3.806.743,4.316,0.837a1.049,1.049,0,0,1,.884.742A1,1,0,0,1,19.632,8.3c-0.38.409-2.3,2.478-3.053,3.283-0.812.865-.642,0.927-0.526,1.882s0.353,2.912.453,3.775a1.4,1.4,0,0,1-.295,1.5,1.377,1.377,0,0,1-1.632-.052c-0.849-.395-3.051-1.391-3.758-1.736a1.434,1.434,0,0,0-1.716.021c-0.648.321-2.816,1.316-3.832,1.778a1.275,1.275,0,0,1-1.379.063,1.17,1.17,0,0,1-.484-1.265c0.152-.943.4-3.2,0.537-4.256a1.544,1.544,0,0,0-.621-1.8C2.769,10.9,1.118,9.16.6,8.6a1.307,1.307,0,0,1-.547-1.37,1.093,1.093,0,0,1,1.063-.837c0.864-.162,3.69-0.706,4.432-0.857A1.431,1.431,0,0,0,6.853,4.465C7.19,3.846,8.637,1.256,8.937.732A1.163,1.163,0,0,1,9.989,0,1.107,1.107,0,0,1,11.021.69ZM7.328,5.156c0.42-.755,1.814-3.236,2.09-3.73S9.732,0.939,10,.921a0.678,0.678,0,0,1,.571.515c0.136,0.248,1.653,2.973,2.111,3.76,0.544,0.936.875,0.923,1.886,1.122,0.921,0.181,3.076.593,3.742,0.728s0.68,0.189.765,0.435a0.738,0.738,0,0,1-.347.788c-0.348.362-2.29,2.421-2.845,3.012a1.757,1.757,0,0,0-.591,1.86c0.108,0.863.4,3.335,0.489,3.993s0.059,0.768-.143.93a1.029,1.029,0,0,1-1.05-.182c-0.532-.237-2.835-1.306-3.61-1.668a2.078,2.078,0,0,0-2.07.051c-0.669.3-3.175,1.465-3.691,1.7s-0.646.293-.918,0.081a0.769,0.769,0,0,1-.122-0.819c0.039-.308.409-3.31,0.5-4a1.832,1.832,0,0,0-.683-2.052C3.312,10.457,1.7,8.733,1.22,8.229S0.839,7.666.873,7.5a0.637,0.637,0,0,1,.581-0.414c0.417-.079,3.4-0.665,4.109-0.788A1.9,1.9,0,0,0,7.328,5.156Z" transform="translate(-0.031)"/>
</svg>
