<svg width="29" height="28" viewBox="0 0 29 28" fill="none" xmlns="http://www.w3.org/2000/svg">
<path d="M6.99768 1.27277e-05C6.11927 0.00595311 5.30705 0.594051 5.07661 1.47442C4.93643 2.01677 5.04352 2.56745 5.3251 3.00941C4.86363 3.26247 4.50144 3.69434 4.36065 4.23669C4.22107 4.77905 4.32696 5.32556 4.60733 5.77109C4.37084 5.89915 4.16355 6.07387 3.99836 6.28439C3.83317 6.49491 3.7136 6.73673 3.6471 6.99481C3.50631 7.53539 3.61461 8.08784 3.89858 8.52743C3.43411 8.78287 3.07132 9.21057 2.93053 9.75709C2.79035 10.2977 2.89804 10.8501 3.18262 11.2897C2.71815 11.5451 2.35535 11.9729 2.21457 12.5194C2.07378 13.0599 2.18208 13.6124 2.46606 14.052C2.00158 14.3074 1.63879 14.7351 1.49861 15.2816C1.35782 15.8222 1.46612 16.3747 1.75009 16.8143C1.28562 17.0697 0.922827 17.4974 0.782041 18.0439C0.640653 18.5904 0.751357 19.1429 1.04075 19.5884C0.799917 19.7164 0.58855 19.8923 0.419971 20.105C0.251393 20.3176 0.129258 20.5624 0.0612647 20.824C-0.208274 21.8636 0.437296 22.9388 1.49259 23.2061L1.49861 23.1942L3.40644 23.6813L3.31799 24.0199L19.0547 28L21.5997 18.1865L20.252 19.4459L14.9695 21.0201L15.9021 18.4954L6.77507 16.1905L7.0398 15.1569L16.2751 17.4915L16.8587 15.9054L17.7792 15.05L7.73169 12.5075L7.99642 11.4739L18.7058 14.1827L21.0883 11.961L8.68832 8.82445L8.95304 7.79082L22.0028 11.0877L21.9968 11.1115L23.892 9.34126L24.993 5.09983L9.25387 1.1174L8.96508 2.22587C9.09744 1.2564 8.47774 0.308912 7.49103 0.0611986C7.32859 0.0196159 7.16013 -0.00058131 6.99768 1.27277e-05V1.27277e-05ZM7.01573 1.06869C7.08793 1.06869 7.16013 1.07997 7.22631 1.0972C7.71364 1.22135 8.00244 1.69896 7.87609 2.18251L8.91093 2.44389L8.24911 4.98696C8.38148 4.01571 7.75576 3.0706 6.77507 2.82288L6.73897 2.81397C6.26969 2.67497 6.00496 2.21102 6.12529 1.74054C6.22757 1.34789 6.56449 1.0871 6.94955 1.06928H7.01573V1.06869ZM6.29977 3.83156C6.35392 3.83156 6.41408 3.83988 6.47425 3.85294L6.51034 3.86185C6.99768 3.98541 7.28647 4.46302 7.16013 4.94538L8.19496 5.20676L7.53315 7.76112C7.67754 6.7869 7.05183 5.82456 6.06512 5.581C6.02301 5.56912 5.98691 5.55724 5.95081 5.5513C5.52966 5.39091 5.29501 4.95132 5.40933 4.5046C5.51161 4.09056 5.88463 3.82443 6.29977 3.83393V3.83156ZM9.90365 4.10422L22.9594 7.41064L22.6947 8.44426L9.63892 5.14141L9.90365 4.10422ZM5.51762 6.59087H5.59584C5.62592 6.59087 5.64999 6.59087 5.68007 6.59681C5.71617 6.60869 5.75227 6.61463 5.78837 6.62651L5.79438 6.61463C6.28172 6.73937 6.57051 7.21461 6.44416 7.70172L7.479 7.96309L6.81719 10.5175C6.95557 9.54917 6.32985 8.59277 5.34916 8.34328C4.85701 8.21853 4.57063 7.7433 4.69637 7.25619C4.79805 6.86412 5.13257 6.60869 5.51762 6.59087V6.59087ZM27.0988 7.82052L26.4851 8.3908L28.3863 10.3808L29 9.81055L27.0988 7.82052ZM25.6969 9.12741L18.0921 16.2262L19.9873 18.2162L27.5982 11.1174L25.6969 9.12741ZM4.80587 9.3472C4.89492 9.3472 4.98637 9.35314 5.07842 9.3769C5.56576 9.50165 5.85455 9.97688 5.7282 10.464L6.76304 10.7254L6.10122 13.2797C6.2396 12.3055 5.61389 11.3551 4.63079 11.1056C4.14105 10.9808 3.85466 10.5056 3.97981 10.0185C4.08209 9.6264 4.42021 9.36502 4.80587 9.3472V9.3472ZM4.08931 12.1095C4.17835 12.1095 4.2698 12.1154 4.36185 12.1392C4.8516 12.2639 5.13858 12.7392 5.01224 13.2263L6.04707 13.4876L5.38526 16.0361C5.52364 15.0678 4.89792 14.1173 3.91423 13.8678C3.42449 13.7431 3.1387 13.2679 3.26384 12.7807C3.36552 12.3887 3.70365 12.1273 4.08931 12.1095ZM3.37334 14.8718C3.46239 14.8718 3.55384 14.8777 3.64589 14.9015C4.13503 15.0262 4.42142 15.5014 4.29628 15.9885L5.33111 16.244L4.67291 18.7865C4.80286 17.8182 4.17655 16.8796 3.19826 16.6301C2.70852 16.5054 2.42214 16.0301 2.54728 15.543C2.64956 15.151 2.98769 14.8896 3.37334 14.8718ZM17.5326 17.2004L16.7264 19.3805L18.9765 18.7092L17.5326 17.2004ZM2.65678 17.634C2.74582 17.634 2.83728 17.64 2.92933 17.6637C3.41907 17.7885 3.70546 18.2637 3.57971 18.7508L4.61515 19.0063L3.95333 21.5606C4.07968 20.5983 3.45397 19.6597 2.47749 19.4102L2.48351 19.3924C1.99256 19.2676 1.70617 18.7924 1.83132 18.3053C1.933 17.9132 2.27112 17.6519 2.65678 17.634V17.634ZM6.08317 18.8399L19.145 22.1368L18.8803 23.1705L5.81845 19.8736L6.08317 18.8399ZM1.93661 20.4141C2.02565 20.4141 2.1171 20.4201 2.20855 20.4438C2.69829 20.5686 2.98468 21.0438 2.85954 21.5309L3.89437 21.7864L3.67236 22.6418L1.7519 22.1547V22.1665C1.26998 22.0359 0.98961 21.5666 1.11355 21.0854C1.21583 20.6933 1.55396 20.432 1.93961 20.4141H1.93661Z" fill="white"/>
</svg>
