<svg width="22" height="18" viewBox="0 0 22 18" fill="none" xmlns="http://www.w3.org/2000/svg">
<path d="M6.91075 17.876C15.213 17.876 19.7546 10.9968 19.7546 5.0417C19.7546 4.8492 19.7546 4.65395 19.7464 4.46145C20.6306 3.82137 21.3937 3.02891 22 2.1212C21.1741 2.48537 20.2988 2.72539 19.4026 2.83345C20.3466 2.2692 21.0536 1.38141 21.3923 0.335078C20.5054 0.860499 19.5346 1.22934 18.5226 1.42545C17.8423 0.700861 16.9419 0.22084 15.9611 0.0597446C14.9803 -0.101351 13.9737 0.0654701 13.0973 0.534367C12.2209 1.00326 11.5236 1.74807 11.1134 2.65341C10.7031 3.55875 10.6029 4.57411 10.8281 5.5422C9.03339 5.45221 7.27762 4.98597 5.67468 4.17372C4.07175 3.36148 2.65744 2.22136 1.5235 0.827328C0.947843 1.82157 0.772164 2.99763 1.03214 4.11669C1.29211 5.23576 1.96825 6.21393 2.92325 6.85258C2.20762 6.82826 1.50772 6.6361 0.88 6.29158V6.35345C0.881234 7.39499 1.24205 8.40416 1.90145 9.21037C2.56086 10.0166 3.4784 10.5704 4.499 10.7782C4.11161 10.8849 3.71144 10.9381 3.30963 10.9363C3.02635 10.9372 2.74365 10.9109 2.46537 10.858C2.75383 11.7545 3.3155 12.5384 4.07171 13.0999C4.82793 13.6613 5.74081 13.9721 6.6825 13.9888C5.08276 15.2453 3.10668 15.9268 1.0725 15.9235C0.714066 15.925 0.355882 15.9043 0 15.8616C2.06458 17.1778 4.46228 17.8767 6.91075 17.876Z" fill="white"/>
</svg>
