<svg width="29" height="29" viewBox="0 0 29 29" fill="none" xmlns="http://www.w3.org/2000/svg">
<path fill-rule="evenodd" clip-rule="evenodd" d="M12.4083 7.32411C13.1168 7.4577 13.781 7.76523 14.3413 8.21906C14.9015 8.67289 15.3402 9.2588 15.6179 9.92414C15.8956 10.5895 16.0037 11.3134 15.9324 12.0308C15.861 12.7483 15.6126 13.4367 15.2093 14.0344L26.3537 22.6844C26.7166 22.4964 27.1325 22.4366 27.5337 22.5147C27.935 22.5928 28.298 22.8042 28.564 23.1146C28.8299 23.425 28.9831 23.8162 28.9987 24.2247C29.0143 24.6332 28.8913 25.0349 28.6498 25.3647C28.4083 25.6945 28.0624 25.9329 27.6682 26.0414C27.2741 26.1498 26.8549 26.1218 26.4787 25.962C26.1024 25.8021 25.7913 25.5198 25.5958 25.1608C25.4002 24.8019 25.3317 24.3874 25.4015 23.9846L14.067 15.1863C13.5333 15.5521 12.9246 15.7942 12.2855 15.8949C11.6464 15.9957 10.9928 15.9527 10.3724 15.7689C9.75199 15.5851 9.18041 15.2653 8.69927 14.8326C8.21814 14.4 7.83958 13.8655 7.59117 13.2681C7.34276 12.6706 7.23076 12.0253 7.26332 11.3791C7.29589 10.7329 7.4722 10.1021 7.77942 9.53266C8.08663 8.96322 8.51701 8.46948 9.0392 8.08742C9.56139 7.70535 10.1622 7.44458 10.798 7.32411L10.7963 0H12.4075V7.32411H12.4083ZM13.052 11.6C13.052 11.7904 13.0145 11.979 12.9416 12.1549C12.8687 12.3308 12.7619 12.4907 12.6273 12.6253C12.4926 12.7599 12.3328 12.8668 12.1568 12.9396C11.9809 13.0125 11.7923 13.05 11.6019 13.05C11.4115 13.05 11.2229 13.0125 11.047 12.9396C10.8711 12.8668 10.7112 12.7599 10.5766 12.6253C10.4419 12.4907 10.3351 12.3308 10.2623 12.1549C10.1894 11.979 10.1519 11.7904 10.1519 11.6C10.1519 11.2154 10.3047 10.8466 10.5766 10.5747C10.8485 10.3028 11.2174 10.15 11.6019 10.15C11.9865 10.15 12.3553 10.3028 12.6273 10.5747C12.8992 10.8466 13.052 11.2154 13.052 11.6Z" fill="white"/>
<path d="M17.4214 11.5871C17.4217 10.4728 17.101 9.38205 16.4977 8.44521C15.8944 7.50836 15.034 6.76509 14.0195 6.30428V0.0853888C17.4746 0.389083 19.2694 1.47739 20.8765 2.96686C20.9571 3.04258 21.0377 3.11589 21.115 3.18678V3.18758C21.7997 3.81592 22.3443 4.31617 22.6254 5.06533L26.0363 14.1456C26.1277 14.3893 26.1586 14.6515 26.1265 14.9098C26.0944 15.1681 26.0001 15.4148 25.8518 15.6287C25.7035 15.8426 25.5055 16.0173 25.2748 16.138C25.0442 16.2586 24.7877 16.3215 24.5274 16.3214H23.2135V18.2056L17.1113 13.4665C17.3179 12.8617 17.4229 12.227 17.4222 11.5879L17.4214 11.5871ZM9.186 6.32039V0.194139C1.94386 1.28406 0 6.68692 0 9.64653C0 14.2922 2.96694 17.8954 4.35817 19.3398V29H18.1432V23.7542H21.6016C21.8448 23.7542 22.0769 23.6994 22.2831 23.6028L13.756 16.9811C12.3467 17.5627 10.765 17.566 9.35325 16.9903C7.94149 16.4146 6.81319 15.3061 6.21249 13.9049C5.61179 12.5036 5.587 10.9221 6.14348 9.50272C6.69997 8.0833 7.79298 6.94007 9.186 6.32039Z" fill="white"/>
</svg>
