<svg width="30" height="30" viewBox="0 0 30 30" fill="none" xmlns="http://www.w3.org/2000/svg">
<path d="M27.7222 14.0463L26.7201 13.7508H18.6188C19.1515 14.7297 19.3439 15.8539 19.1665 16.9509C18.989 18.048 18.4515 19.0574 17.6363 19.8244C16.8211 20.5914 15.7733 21.0738 14.6534 21.1975C13.5335 21.3213 12.4033 21.0796 11.4361 20.5095C10.4689 19.9394 9.71808 19.0723 9.29864 18.0412C8.87921 17.0101 8.81435 15.8719 9.11401 14.801C9.41366 13.7301 10.0613 12.7856 10.9576 12.1123C11.854 11.439 12.9496 11.0741 14.0765 11.0734C14.2793 11.0616 14.4825 11.0616 14.6853 11.0734C14.4893 10.2578 14.606 9.39958 15.0131 8.66371L16.9705 5.32155L16.165 2.70875C16.1329 2.59825 16.0672 2.5001 15.9768 2.42748C15.8864 2.35486 15.7756 2.31125 15.6593 2.30252H12.4937C12.3721 2.30308 12.2538 2.34188 12.1561 2.41329C12.0584 2.48469 11.9864 2.58496 11.9505 2.69952L11.014 5.74624C10.2385 5.97149 9.49089 6.28115 8.78494 6.66949L5.97526 5.17383C5.86673 5.11701 5.74251 5.09621 5.62103 5.1145C5.49956 5.1328 5.3873 5.18922 5.30093 5.27538L3.02509 7.46348C2.93768 7.54863 2.88045 7.65929 2.86189 7.77903C2.84333 7.89878 2.86444 8.02124 2.92207 8.12822L4.4393 10.898C4.04599 11.591 3.73189 12.3248 3.50274 13.0861L0.402721 14.0093C0.286515 14.0447 0.184794 14.1157 0.112362 14.212C0.0399298 14.3083 0.00056622 14.4249 0 14.5448V17.6654C0.00056622 17.7853 0.0399298 17.9019 0.112362 17.9982C0.184794 18.0945 0.286515 18.1655 0.402721 18.2009L3.52147 19.1241C3.75312 19.8727 4.06718 20.5941 4.45803 21.2753L2.92207 24.1743C2.86444 24.2813 2.84333 24.4037 2.86189 24.5235C2.88045 24.6432 2.93768 24.7539 3.02509 24.839L5.26347 27.0456C5.34984 27.1318 5.46209 27.1882 5.58357 27.2065C5.70504 27.2248 5.82926 27.204 5.93779 27.1472L8.83177 25.6238C9.51636 25.988 10.2385 26.2789 10.9859 26.4917L11.9224 29.603C11.9583 29.7176 12.0303 29.8178 12.128 29.8892C12.2257 29.9606 12.344 29.9994 12.4656 30H15.6312C15.7528 29.9994 15.8711 29.9606 15.9688 29.8892C16.0665 29.8178 16.1385 29.7176 16.1744 29.603L17.111 26.4824C17.8519 26.2686 18.5677 25.9776 19.2463 25.6146L22.159 27.1472C22.2676 27.204 22.3918 27.2248 22.5132 27.2065C22.6347 27.1882 22.747 27.1318 22.8333 27.0456L25.0717 24.839C25.1591 24.7539 25.2164 24.6432 25.2349 24.5235C25.2535 24.4037 25.2324 24.2813 25.1748 24.1743L23.6201 21.3122C23.9922 20.6407 24.2905 19.932 24.5098 19.198L27.666 18.2747C27.7822 18.2394 27.8839 18.1683 27.9564 18.072C28.0288 17.9757 28.0682 17.8591 28.0687 17.7392V14.591C28.0742 14.4762 28.044 14.3624 27.9821 14.2651C27.9201 14.1677 27.8294 14.0913 27.7222 14.0463Z" fill="white"/>
<path d="M22.365 0.585298L17.0079 9.68854C16.8832 9.86887 16.8117 10.0797 16.8012 10.2977C16.7906 10.5156 16.8415 10.7322 16.9482 10.9234C17.0549 11.1146 17.2132 11.273 17.4055 11.3809C17.5979 11.4889 17.8168 11.5422 18.0381 11.535H28.7617C28.9829 11.5422 29.2019 11.4889 29.3943 11.3809C29.5866 11.273 29.7449 11.1146 29.8516 10.9234C29.9583 10.7322 30.0092 10.5156 29.9986 10.2977C29.9881 10.0797 29.9166 9.86887 29.7919 9.68854L24.4348 0.585298C24.3291 0.407162 24.178 0.259401 23.9965 0.156716C23.8149 0.0540304 23.6092 0 23.3999 0C23.1906 0 22.9849 0.0540304 22.8033 0.156716C22.6218 0.259401 22.4706 0.407162 22.365 0.585298Z" fill="white"/>
</svg>
