<svg width="14" height="11" viewBox="0 0 14 11" fill="none" xmlns="http://www.w3.org/2000/svg">
<path d="M13.4258 5.35938C13.404 5.3125 12.95 4.22852 11.9329 3.14453C10.9157 2.06055 9.37349 0.929688 7.00005 0.929688C4.62661 0.929688 3.00786 2.13086 2.06724 3.14453C1.12661 4.1582 0.596142 5.3125 0.574267 5.35938C0.555177 5.40343 0.545288 5.45143 0.545288 5.5C0.545288 5.54857 0.555177 5.59657 0.574267 5.64062C0.596142 5.6875 1.05005 6.77148 2.06724 7.85547C3.08442 8.93945 4.62661 10.0703 7.00005 10.0703C9.37349 10.0703 10.9922 8.86914 11.9329 7.85547C12.8735 6.8418 13.404 5.6875 13.4258 5.64062C13.4449 5.59657 13.4548 5.54857 13.4548 5.5C13.4548 5.45143 13.4449 5.40343 13.4258 5.35938ZM7.00005 9.36719C5.28286 9.36719 3.78442 8.69922 2.54849 7.38086C2.02733 6.8276 1.58673 6.19357 1.24145 5.5C1.58673 4.80643 2.02733 4.1724 2.54849 3.61914C3.78442 2.30078 5.28286 1.63281 7.00005 1.63281C8.71724 1.63281 10.2157 2.30078 11.4516 3.61914C11.9728 4.1724 12.4134 4.80643 12.7586 5.5C12.4086 6.21484 10.6641 9.36719 7.00005 9.36719ZM7.00005 2.80469C6.5025 2.80469 6.01613 2.96276 5.60244 3.25893C5.18875 3.55509 4.86632 3.97604 4.67591 4.46855C4.48551 4.96105 4.43569 5.50299 4.53276 6.02583C4.62983 6.54867 4.86942 7.02893 5.22123 7.40587C5.57305 7.78282 6.02129 8.03952 6.50927 8.14352C6.99726 8.24752 7.50307 8.19415 7.96274 7.99014C8.42241 7.78614 8.81529 7.44068 9.09171 6.99744C9.36813 6.55419 9.51567 6.03308 9.51567 5.5C9.51567 4.78516 9.25064 4.0996 8.77886 3.59413C8.30709 3.08866 7.66723 2.80469 7.00005 2.80469ZM7.00005 7.49219C6.6323 7.49219 6.27281 7.37535 5.96703 7.15644C5.66126 6.93754 5.42294 6.6264 5.28221 6.26238C5.14148 5.89835 5.10466 5.49779 5.1764 5.11134C5.24814 4.7249 5.42523 4.36992 5.68527 4.09131C5.94531 3.8127 6.27662 3.62296 6.6373 3.54609C6.99799 3.46922 7.37184 3.50867 7.7116 3.65946C8.05136 3.81024 8.34175 4.06559 8.54606 4.3932C8.75037 4.72081 8.85942 5.10598 8.85942 5.5C8.85798 6.02789 8.66162 6.53371 8.31323 6.90698C7.96484 7.28025 7.49274 7.49064 7.00005 7.49219Z" fill="#999999" fill-opacity="0.67"/>
</svg>
