<svg width="16" height="17" viewBox="0 0 16 17" fill="none" xmlns="http://www.w3.org/2000/svg">
<path d="M8 5.71906C7.84177 5.71906 7.6871 5.76598 7.55554 5.85389C7.42398 5.94179 7.32145 6.06673 7.2609 6.21291C7.20035 6.35909 7.1845 6.51994 7.21537 6.67512C7.24624 6.8303 7.32243 6.97285 7.43431 7.08473C7.5462 7.19661 7.68874 7.2728 7.84393 7.30367C7.99911 7.33454 8.15997 7.31869 8.30615 7.25814C8.45233 7.1976 8.57727 7.09506 8.66518 6.9635C8.75308 6.83194 8.8 6.67727 8.8 6.51905C8.8 6.30688 8.71571 6.1034 8.56569 5.95337C8.41566 5.80335 8.21217 5.71906 8 5.71906ZM13.6 0.119141H2.4C1.76348 0.119141 1.15303 0.371994 0.702944 0.822075C0.252856 1.27216 0 1.8826 0 2.51911V10.519C0 11.1555 0.252856 11.7659 0.702944 12.216C1.15303 12.6661 1.76348 12.919 2.4 12.919H11.672L14.632 15.8869C14.7068 15.9611 14.7954 16.0197 14.8929 16.0595C14.9903 16.0993 15.0947 16.1195 15.2 16.1189C15.3049 16.1216 15.4091 16.0997 15.504 16.0549C15.6501 15.9949 15.7752 15.893 15.8634 15.762C15.9517 15.631 15.9992 15.4769 16 15.3189V2.51911C16 1.8826 15.7471 1.27216 15.2971 0.822075C14.847 0.371994 14.2365 0.119141 13.6 0.119141ZM14.4 13.391L12.568 11.551C12.4932 11.4768 12.4046 11.4182 12.3071 11.3784C12.2097 11.3386 12.1053 11.3184 12 11.319H2.4C2.18783 11.319 1.98434 11.2347 1.83431 11.0847C1.68429 10.9346 1.6 10.7312 1.6 10.519V2.51911C1.6 2.30694 1.68429 2.10346 1.83431 1.95343C1.98434 1.8034 2.18783 1.71912 2.4 1.71912H13.6C13.8122 1.71912 14.0157 1.8034 14.1657 1.95343C14.3157 2.10346 14.4 2.30694 14.4 2.51911V13.391ZM4.8 5.71906C4.64178 5.71906 4.4871 5.76598 4.35554 5.85389C4.22398 5.94179 4.12145 6.06673 4.0609 6.21291C4.00035 6.35909 3.9845 6.51994 4.01537 6.67512C4.04624 6.8303 4.12243 6.97285 4.23431 7.08473C4.3462 7.19661 4.48874 7.2728 4.64393 7.30367C4.79911 7.33454 4.95997 7.31869 5.10615 7.25814C5.25233 7.1976 5.37727 7.09506 5.46518 6.9635C5.55308 6.83194 5.6 6.67727 5.6 6.51905C5.6 6.30688 5.51571 6.1034 5.36569 5.95337C5.21566 5.80335 5.01217 5.71906 4.8 5.71906ZM11.2 5.71906C11.0418 5.71906 10.8871 5.76598 10.7555 5.85389C10.624 5.94179 10.5214 6.06673 10.4609 6.21291C10.4003 6.35909 10.3845 6.51994 10.4154 6.67512C10.4462 6.8303 10.5224 6.97285 10.6343 7.08473C10.7462 7.19661 10.8887 7.2728 11.0439 7.30367C11.1991 7.33454 11.36 7.31869 11.5061 7.25814C11.6523 7.1976 11.7773 7.09506 11.8652 6.9635C11.9531 6.83194 12 6.67727 12 6.51905C12 6.30688 11.9157 6.1034 11.7657 5.95337C11.6157 5.80335 11.4122 5.71906 11.2 5.71906Z" fill="#D91B5C"/>
</svg>
