<svg width="27" height="16" viewBox="0 0 27 16" fill="none" xmlns="http://www.w3.org/2000/svg">
<path d="M25.9418 16H22.9963C21.8804 16 21.5368 15.1197 19.5296 13.0969C17.7861 11.4158 17.0139 11.1926 16.584 11.1926C15.9767 11.1926 15.8042 11.3628 15.8042 12.1914V14.8385C15.8042 15.5485 15.5798 15.9748 13.6905 15.9748C10.5662 15.9748 7.09947 14.0957 4.66874 10.5948C1.00298 5.46449 0 1.62182 0 0.827304C0 0.39978 0.171178 0 0.996639 0H3.94852C4.69536 0 4.97939 0.341767 5.26976 1.13628C6.72922 5.32703 9.15995 8.99819 10.1629 8.99819C10.5332 8.99819 10.7044 8.82794 10.7044 7.88839V3.56018C10.5915 1.56381 9.53528 1.39229 9.53528 0.683534C9.53528 0.341767 9.81931 0 10.2745 0H14.9166C15.5443 0 15.7751 0.341767 15.7751 1.07701V6.91606C15.7751 7.54662 16.0591 7.76984 16.2303 7.76984C16.6005 7.76984 16.9175 7.54662 17.6035 6.86309C19.7236 4.49846 21.2426 0.852527 21.2426 0.852527C21.4404 0.425002 21.7841 0.0252226 22.5309 0.0252226H25.4828C26.3678 0.0252226 26.5656 0.47797 26.3678 1.10854C25.9976 2.81611 22.3851 7.88713 22.3851 7.88713C22.0744 8.39915 21.9552 8.62237 22.3851 9.19366C22.7021 9.62119 23.733 10.5078 24.4189 11.3023C25.6806 12.7274 26.6506 13.9229 26.9093 14.7502C27.1996 15.5712 26.7711 15.9987 25.938 15.9987L25.9418 16Z" fill="white"/>
</svg>
