<svg xmlns="http://www.w3.org/2000/svg" width="28.125" height="28.156" viewBox="0 0 28.125 28.156">
  <defs>
    <style>
      .cls-1 {
        fill-rule: evenodd;
      }
    </style>
  </defs>
  <path id="sfdd" class="cls-1" d="M243.712,71H262.95c1.941,0,2.19.985,2.19,2.122v4.929h3.492a1.579,1.579,0,0,1,1.506,1.78V97.358a1.724,1.724,0,0,1-2.944,1.3c-1.319-1.114-6.3-5.477-6.3-5.477H249.942c-1.349,0-1.986-.541-1.986-1.917V87.636s-1.4,1.462-2.875,2.875-3.081.494-3.081-.89V72.712A1.688,1.688,0,0,1,243.712,71Zm1.643,3.355h16.431v3.56H249.873a1.721,1.721,0,0,0-1.917,1.78v3.149l-2.6,2.739V74.355ZM266.715,93.8V81.269h-15.4v8.558h9.722a2.217,2.217,0,0,1,1.917.685C263.592,91.118,266.715,93.8,266.715,93.8Z" transform="translate(-242 -71)"/>
</svg>
