<svg width="189" height="25" viewBox="0 0 189 25" fill="none" xmlns="http://www.w3.org/2000/svg">
<g clip-path="url(#clip0_501_26)">
<path fill-rule="evenodd" clip-rule="evenodd" d="M63.682 5.25635H67.9019L73.6563 13.8461V5.25635H79.0271V24.2307H74.6793C74.6793 24.2307 70.9281 18.7179 69.0528 15.8974V24.2307H63.682V5.25635ZM80.3058 5.25635H86.1881L89.1292 17.3076L92.0704 5.25635H97.9526L92.0704 24.2307H86.0602L80.3058 5.25635ZM7.16103 22.3076V10.641L12.5318 7.56404V22.3076H7.16103ZM5.37077 24.9999H0L0.127876 14.6153L5.37077 11.4102V24.9999ZM37.4675 12.1794L42.071 9.35891C42.071 9.35891 39.8612 4.74353 33.7591 4.74353C26.6303 4.74353 24.2963 10.8066 24.2963 14.6153C24.2963 19.9072 27.9487 24.7435 33.7591 24.7435C39.5695 24.7435 42.071 19.9999 42.071 19.9999L37.4675 17.3076C37.4675 17.3076 36.2544 19.3589 34.0149 19.3589C31.7754 19.3589 29.6671 17.5143 29.6671 14.8717C29.6671 12.2292 31.2528 10.1281 33.7591 10.1281C36.2655 10.1281 37.4675 12.1794 37.4675 12.1794ZM51.7896 4.74353C57.5403 4.74353 61.636 8.92917 61.636 14.6153C61.636 20.3015 57.6499 24.7435 52.429 24.7435C47.2081 24.7435 42.071 21.3657 42.071 14.2307C42.071 9.44494 46.0389 4.74353 51.7896 4.74353ZM111.252 10.1281V5.25635H99.2314V24.1025H111.38V19.2307H104.474V17.0512H110.484V12.1794H104.474V10.1281H111.252ZM124.934 17.1794C125.506 18.3764 128.643 24.2307 128.643 24.2307H122.888L120.075 18.3333H118.668V24.2307H113.426V5.12815H121.737C128.115 5.12815 129.892 14.4999 124.934 17.1794ZM138.617 11.7948C138.996 11.5348 142.965 9.23071 142.965 9.23071C142.965 9.23071 141.522 4.74353 135.804 4.74353C130.085 4.74353 126.933 10.8711 131.456 15.1281C134.035 17.5556 138.473 17.2179 138.106 18.5897C137.773 19.8344 134.514 20.3461 132.991 17.1794C132.456 17.4839 128.515 19.8717 128.515 19.8717C128.515 19.8717 129.168 24.6153 136.571 24.6153C143.974 24.6153 144.519 17.7808 142.325 14.9999C140.132 12.219 134.297 12.5351 134.781 10.7692C135.276 8.96404 138.022 10.0512 138.617 11.7948ZM144.883 24.2307H150.126V9.48712L144.883 12.6922V24.2307ZM52.0453 19.2307C54.7179 19.2307 56.3931 17.2887 56.3931 14.9999C56.3931 12.7112 54.8706 10.1281 52.1732 10.1281C49.4758 10.1281 47.5697 12.2402 47.5697 14.7435C47.5697 17.2469 49.3727 19.2307 52.0453 19.2307ZM173.655 5.25635H177.875L183.629 13.8461V5.25635H189V24.2307H184.652C184.652 24.2307 180.902 18.7179 179.026 15.8974V24.2307H173.655V5.25635ZM161.745 4.75468C167.495 4.75468 171.591 8.94033 171.591 14.6265C171.591 20.3126 167.604 24.7547 162.384 24.7547C157.164 24.7547 152.026 21.3769 152.026 14.2419C152.026 9.4561 155.993 4.75468 161.745 4.75468ZM162 19.2419C164.672 19.2419 166.348 17.2998 166.348 15.0111C166.348 12.7224 164.825 10.1393 162.128 10.1393C159.431 10.1393 157.525 12.2514 157.525 14.7547C157.525 17.258 159.328 19.2419 162 19.2419ZM118.796 10.2564V13.7179H120.97C122.837 13.7179 123.014 10.2564 120.842 10.2564H118.796Z" fill="black"/>
<path fill-rule="evenodd" clip-rule="evenodd" d="M143.86 0.897436V9.74359H144.499L149.742 5.89744L151.916 7.4359V0H149.359L145.778 2.05128L144.499 0.897436H143.86ZM19.9487 2.94872V17.8205H14.0664V6.28205L19.9487 2.94872Z" fill="#D91B5C"/>
</g>
<defs>
<clipPath id="clip0_501_26">
<rect width="189" height="25" fill="white"/>
</clipPath>
</defs>
</svg>
