<svg id="logo" xmlns="http://www.w3.org/2000/svg" width="1478" height="195" viewBox="0 0 1478 195">
  <defs>
    <style>
      .cls-1 {
        fill: #fff;
      }

      .cls-1, .cls-2 {
        fill-rule: evenodd;
      }

      .cls-2 {
        fill: #d91b5c;
      }
    </style>
  </defs>
  <path id="text" class="cls-1" d="M544,95h33l45,67V95h42V243H630s-29.335-43-44-65v65H544V95Zm130,0h46l23,94,23-94h46L766,243H719ZM102,228V137l42-24V228H102ZM88,249H46l1-81,41-25V249ZM339,149l36-22s-17.281-36-65-36c-55.748,0-74,47.292-74,77,0,41.277,28.562,79,74,79s65-37,65-37l-36-21s-9.487,16-27,16-34-14.388-34-35,12.4-37,32-37S339,149,339,149ZM451,91c44.971,0,77,32.648,77,77s-31.172,79-72,79-81-26.347-81-82C375,127.671,406.029,91,451,91Zm465,42V95H822V242h95V204H863V187h47V149H863V133h53Zm107,55c4.47,9.336,29,55,29,55h-45l-22-46H974v46H933V94h65C1047.87,94,1061.77,167.1,1023,188Zm107-42c2.96-2.028,34-20,34-20s-11.28-35-56-35-69.37,47.795-34,81c20.17,18.934,54.87,16.3,52,27-2.6,9.709-28.09,13.7-40-11-4.18,2.375-35,21-35,21s5.11,37,63,37,62.15-53.309,45-75-62.78-19.226-59-33C1103.87,123.92,1125.35,132.4,1130,146Zm49,97h41V128l-41,25v90ZM453,204c20.9,0,34-15.148,34-33s-11.906-38-33-38-36,16.474-36,36S432.1,204,453,204ZM1404,95h33l45,67V95h42V243h-34s-29.33-43-44-65v65h-42V95Zm-93.14-3.913c44.97,0,77,32.648,77,77s-31.18,79-72,79-81-26.347-81-82C1234.86,127.758,1265.88,91.087,1310.86,91.087Zm2,113c20.89,0,34-15.148,34-33s-11.91-38-33-38-36,16.474-36,36S1291.96,204.087,1312.86,204.087ZM975,134v27h17c14.6,0,15.98-27-1-27H975Z" transform="translate(-46 -54)"/>
  <path id="decor" class="cls-2" d="M1171,61v69h5l41-30,17,12V54h-20l-28,16-10-9h-5ZM202,77V193H156V103Z" transform="translate(-46 -54)"/>
</svg>
