<svg width="20" height="19" viewBox="0 0 20 19" fill="none" xmlns="http://www.w3.org/2000/svg"><path d="M2 18.4c-1.1 0-2-.9-2-2V6.7c0-1.1.9-2 2-2h3.4c1 0 1.8.7 2 1.6.3-.2.5-.5.8-1.1l1.1-2.8c.2-.7.8-2.4 2.7-2.4 1.6 0 2.8 1.3 2.8 2.8v2.9l1.3-.1c2.1 0 3.9 1.7 3.9 3.8v3.1c0 3-2.4 5.4-5.4 5.4h-4.3c-1.1 0-2.3-.2-3.2-.7-.3.6-1 1-1.7 1H2v.2zm0-2.1h3.4V6.7H2v9.6zM12 2c-.2 0-.5.1-.9 1.2L10 6c-.5 1.4-1.4 2.1-2.6 2.3l.1 7c.5.3 1.6.7 2.8.7h4.3c1.9 0 3.4-1.5 3.4-3.4V9.5c0-1-.8-1.8-1.8-1.8h-2.3c-.6 0-1-.5-1-1V2.8c-.1-.4-.5-.8-.9-.8z" fill="#73B123"/></svg>