<svg xmlns="http://www.w3.org/2000/svg" xmlns:xlink="http://www.w3.org/1999/xlink"><symbol id="icon-arr-left" viewBox="0 0 14 24"><path d="M.94 10.94a1.5 1.5 0 000 2.12l9.545 9.547a1.5 1.5 0 102.122-2.122L4.12 12l8.486-8.485a1.5 1.5 0 10-2.122-2.122L.94 10.94zM3 10.5H2v3h1v-3z"/></symbol><symbol id="icon-arr-right" viewBox="0 0 13 24"><path d="M12.18 13.06a1.5 1.5 0 000-2.12L2.636 1.392A1.5 1.5 0 10.513 3.515L9 12 .513 20.485a1.5 1.5 0 102.122 2.122l9.546-9.546zM10 13.5h1.12v-3H10v3z"/></symbol><symbol id="icon-arrow" viewBox="0 0 201 16"><path d="M200.707 8.707a1 1 0 000-1.414L194.343.929a1 1 0 10-1.414 1.414L198.586 8l-5.657 5.657a1 1 0 101.414 1.414l6.364-6.364zM0 9h200V7H0v2z"/></symbol><symbol id="icon-calendar" viewBox="0 0 26 25"><path d="M17.638 11.166a.78.78 0 01.238.553.756.756 0 01-.238.554l-4.875 4.688a.813.813 0 01-.575.23.84.84 0 01-.576-.23l-2.437-2.344a.78.78 0 01-.239-.553.757.757 0 01.239-.554.83.83 0 01.886-.17c.099.04.189.098.264.17l1.863 1.793 4.3-4.137a.814.814 0 01.575-.23.84.84 0 01.575.23z"/><path d="M5.688 0a.83.83 0 01.574.229A.766.766 0 016.5.78v.781h13v-.78c0-.208.086-.407.238-.553A.83.83 0 0120.313 0a.83.83 0 01.574.229.766.766 0 01.238.552v.781h1.625c.862 0 1.689.33 2.298.916.61.586.952 1.38.952 2.21v17.187c0 .829-.342 1.624-.952 2.21A3.317 3.317 0 0122.75 25H3.25c-.862 0-1.689-.33-2.298-.915A3.065 3.065 0 010 21.875V4.687c0-.828.342-1.623.952-2.21a3.317 3.317 0 012.298-.914h1.625V.78c0-.207.086-.406.238-.552A.83.83 0 015.687 0zM1.625 6.25v15.625c0 .414.171.812.476 1.105.305.293.718.457 1.149.457h19.5c.431 0 .844-.164 1.149-.457.305-.293.476-.69.476-1.105V6.25H1.625z"/></symbol><symbol id="icon-card" viewBox="0 0 25 21"><path d="M22.5 0h-20C1.121 0 0 1.177 0 2.625v15.75C0 19.823 1.121 21 2.5 21h20c1.379 0 2.5-1.177 2.5-2.625V2.625C25 1.177 23.879 0 22.5 0zm-20 2.625h20V5.25h-20V2.625zm0 15.75V10.5h20.001l.002 7.875H2.5z"/><path d="M4.167 12.6H12.5v2.1H4.167v-2.1z"/></symbol><symbol id="icon-close" viewBox="0 0 37 37"><path d="M1.12 35.77a3 3 0 010-4.243L31.527 1.12a3 3 0 114.243 4.243L5.364 35.77a3 3 0 01-4.243 0z"/><path d="M35.77 35.77a3 3 0 01-4.243 0L1.12 5.364a3 3 0 014.243-4.243l30.405 30.406a3 3 0 010 4.243z"/></symbol><symbol id="icon-copy" viewBox="0 0 50 48"><path d="M29.865 35.94v8.806H3.108V17.9h10.77v-2.985H2.027A2.03 2.03 0 000 16.949v29.017A2.03 2.03 0 002.027 48h28.919a2.031 2.031 0 002.027-2.034V35.932zm18.108-2.856A2.03 2.03 0 0050 31.051V2.034A2.03 2.03 0 0047.973 0H19.054a2.031 2.031 0 00-2.027 2.034v29.017a2.031 2.031 0 002.027 2.034h28.919zm-27.838-3.253h9.73V17.9h-9.73v11.931zM46.892 2.983H20.135v11.932h10.811a2.031 2.031 0 012.027 2.034v12.882h13.919V2.983z" fill-rule="evenodd"/></symbol><symbol id="icon-gear" viewBox="0 0 30 30"><path d="M27.722 14.046l-1.002-.295H18.62c.532.979.725 2.103.547 3.2a5.055 5.055 0 01-1.53 2.873 5.212 5.212 0 01-6.2.685A5.098 5.098 0 019.3 18.041a5.01 5.01 0 01-.185-3.24c.3-1.07.947-2.015 1.844-2.689a5.2 5.2 0 013.118-1.039 5.24 5.24 0 01.61 0 3.355 3.355 0 01.327-2.41l1.958-3.341-.806-2.613a.576.576 0 00-.506-.406h-3.165a.577.577 0 00-.543.397l-.937 3.046c-.775.225-1.523.535-2.23.923L5.976 5.174a.578.578 0 00-.674.101L3.025 7.463a.56.56 0 00-.103.665l1.517 2.77a10.654 10.654 0 00-.936 2.188l-3.1.923a.558.558 0 00-.403.536v3.12a.558.558 0 00.403.536l3.118.923c.232.749.546 1.47.937 2.151l-1.536 2.9a.556.556 0 00.103.664l2.238 2.207a.574.574 0 00.675.101l2.894-1.523a11 11 0 002.154.868l.936 3.111a.563.563 0 00.206.286c.098.072.216.11.338.111h3.165a.563.563 0 00.543-.397l.937-3.12c.74-.214 1.457-.505 2.135-.868l2.913 1.532a.579.579 0 00.674-.101l2.239-2.207a.56.56 0 00.103-.665l-1.555-2.862c.372-.671.67-1.38.89-2.114l3.156-.923a.571.571 0 00.29-.203.558.558 0 00.113-.333v-3.148a.557.557 0 00-.347-.545z"/><path d="M22.365.585L17.008 9.69a1.17 1.17 0 00.398 1.692c.192.108.41.161.632.154h10.724c.22.007.44-.046.632-.154a1.19 1.19 0 00.458-.458 1.167 1.167 0 00-.06-1.234L24.435.585a1.191 1.191 0 00-.438-.428 1.212 1.212 0 00-1.632.428z"/></symbol><symbol id="icon-geo" viewBox="0 0 21 27"><path d="M10.5 0C4.71 0 0 4.845 0 10.793-.038 19.494 10.101 26.708 10.5 27c0 0 10.538-7.506 10.5-16.2C21 4.845 16.29 0 10.5 0zm0 16.2c-2.9 0-5.25-2.416-5.25-5.4 0-2.984 2.35-5.4 5.25-5.4s5.25 2.416 5.25 5.4c0 2.983-2.35 5.4-5.25 5.4z"/></symbol><symbol id="icon-headphone" viewBox="0 0 29 29"><path fill-rule="evenodd" clip-rule="evenodd" d="M12.408 7.324a4.352 4.352 0 012.801 6.71l11.145 8.65a1.813 1.813 0 11-.953 1.3l-11.334-8.798a4.348 4.348 0 01-6.804-3.807 4.35 4.35 0 013.535-4.055L10.796 0h1.612v7.324zm.644 4.276a1.45 1.45 0 11-2.899 0 1.45 1.45 0 012.899 0z"/><path d="M17.421 11.587a5.8 5.8 0 00-3.401-5.283V.085c3.455.304 5.25 1.392 6.857 2.882.08.076.16.149.238.22.685.629 1.23 1.13 1.51 1.878l3.411 9.08a1.61 1.61 0 01-1.509 2.176h-1.314v1.885l-6.102-4.74c.207-.604.312-1.239.311-1.878zM9.186 6.32V.194C1.944 1.284 0 6.687 0 9.647c0 4.645 2.967 8.248 4.358 9.693V29h13.785v-5.246h3.459c.243 0 .475-.055.681-.151l-8.527-6.622a5.8 5.8 0 01-4.57-10.66z"/></symbol><symbol id="icon-image" viewBox="0 0 41 41"><path d="M23 8H1v32h32V18.5" stroke-width="2"/><circle cx="12" cy="18" r="4"/><path d="M15 31l10-10.5 8 7" stroke-width="2"/><circle cx="33" cy="8" r="7" stroke-width="2"/><path d="M1 36l9-9 8.5 8.5H25M33 4v8M29 8h8" stroke-width="2"/></symbol><symbol id="icon-inst" viewBox="0 0 28 28"><path d="M23.125 0h-18.5C2.005 0 0 2.004 0 4.625v18.5c0 2.62 2.004 4.625 4.625 4.625h18.5c2.62 0 4.625-2.004 4.625-4.625v-18.5C27.75 2.005 25.746 0 23.125 0zm-9.25 9.25c2.62 0 4.625 2.004 4.625 4.625 0 2.62-2.004 4.625-4.625 4.625-2.62 0-4.625-2.004-4.625-4.625 0-2.62 2.004-4.625 4.625-4.625zm5.858-3.083c0-1.08.925-1.85 1.85-1.85s1.85.925 1.85 1.85-.77 1.85-1.85 1.85c-1.079 0-1.85-.771-1.85-1.85zm3.392 18.5h-18.5c-.925 0-1.542-.617-1.542-1.542v-9.25h3.084c0 4.317 3.391 7.708 7.708 7.708s7.708-3.391 7.708-7.708h3.084v9.25c0 .925-.617 1.542-1.542 1.542z"/></symbol><symbol id="icon-menu-close" viewBox="0 0 30 30"><path fill-rule="evenodd" stroke-width="3" d="M27.228 3.186L15.914 14.5l11.314 11.314-1.414 1.414L14.5 15.914 3.186 27.228l-1.414-1.414L13.086 14.5 1.772 3.186l1.414-1.414L14.5 13.086 25.814 1.772l1.414 1.414z"/></symbol><symbol id="icon-menu-open" viewBox="0 0 32 19"><path d="M0 16h32v3H0v-3zm0-8h32v3H0V8zm0-8h32v3H0V0z" fill-rule="evenodd"/></symbol><symbol id="icon-msg" viewBox="0 0 16 17"><path d="M8 5.72a.8.8 0 100 1.599.8.8 0 000-1.6zm5.6-5.6H2.4A2.4 2.4 0 000 2.52v7.999a2.4 2.4 0 002.4 2.4h9.272l2.96 2.968a.8.8 0 001.231-.125.8.8 0 00.137-.443v-12.8a2.4 2.4 0 00-2.4-2.4zm.8 13.271l-1.832-1.84a.8.8 0 00-.568-.232H2.4a.8.8 0 01-.8-.8v-8a.8.8 0 01.8-.8h11.2a.8.8 0 01.8.8v10.872zM4.8 5.719a.8.8 0 100 1.6.8.8 0 000-1.6zm6.4 0a.8.8 0 100 1.6.8.8 0 000-1.6z"/></symbol><symbol id="icon-notepad" viewBox="0 0 29 28"><path d="M6.998 0c-.879.006-1.691.594-1.921 1.474a1.945 1.945 0 00.248 1.535 1.965 1.965 0 00-.964 1.228 1.953 1.953 0 00.246 1.534 1.96 1.96 0 00-.96 1.224c-.14.54-.032 1.093.252 1.532a1.96 1.96 0 00-.968 1.23c-.14.54-.033 1.093.252 1.533a1.96 1.96 0 00-.968 1.23c-.141.54-.033 1.092.251 1.532a1.958 1.958 0 00-.967 1.23c-.141.54-.033 1.093.251 1.532a1.96 1.96 0 00-.968 1.23 1.934 1.934 0 00.259 1.544 1.974 1.974 0 00-.98 1.236c-.27 1.04.376 2.115 1.432 2.382l.006-.012 1.907.487-.088.339L19.055 28l2.545-9.814-1.348 1.26-5.282 1.574.932-2.525-9.127-2.305.265-1.033 9.235 2.334.584-1.586.92-.855-10.047-2.543.264-1.033 10.71 2.709 2.382-2.222-12.4-3.137.265-1.033 13.05 3.297-.006.024 1.895-1.77L24.993 5.1 9.253 1.117l-.288 1.109A1.967 1.967 0 007.491.06 1.976 1.976 0 006.998 0zm.018 1.069c.072 0 .144.011.21.028a.883.883 0 01.65 1.086l1.035.26-.662 2.544a1.97 1.97 0 00-1.474-2.164l-.036-.009a.88.88 0 01-.614-1.073.89.89 0 01.825-.672h.066zM6.3 3.832c.054 0 .114.008.174.02l.036.01a.882.882 0 01.65 1.083l1.035.262-.662 2.554a1.963 1.963 0 00-1.468-2.18c-.042-.012-.078-.024-.114-.03a.876.876 0 01-.542-1.046.885.885 0 01.89-.671v-.002zm3.604.272l13.055 3.307-.264 1.033L9.639 5.141l.265-1.037zM5.518 6.591h.078c.03 0 .054 0 .084.006.036.012.072.018.108.03l.006-.012c.488.124.777.6.65 1.087l1.035.261-.662 2.554A1.975 1.975 0 005.35 8.344a.883.883 0 01-.653-1.087.882.882 0 01.822-.665zm21.58 1.23l-.613.57 1.901 1.99.614-.57-1.901-1.99zm-1.401 1.306l-7.605 7.1 1.895 1.99 7.611-7.1-1.901-1.99zm-20.891.22c.089 0 .18.006.272.03.488.125.777.6.65 1.087l1.035.261-.662 2.555a1.97 1.97 0 00-1.47-2.174.884.884 0 01-.651-1.088.893.893 0 01.826-.67zm-.717 2.763c.09 0 .18.005.273.03.49.124.777.6.65 1.086l1.035.262-.662 2.548a1.968 1.968 0 00-1.47-2.168.883.883 0 01-.651-1.087.892.892 0 01.825-.671zm-.716 2.762c.09 0 .18.006.273.03.489.124.775.6.65 1.087l1.035.255-.658 2.543a1.97 1.97 0 00-1.475-2.157.884.884 0 01-.65-1.087.893.893 0 01.825-.671zm14.16 2.328l-.807 2.18 2.25-.67-1.443-1.51zm-14.876.434c.089 0 .18.006.272.03.49.124.776.6.65 1.087l1.036.255-.662 2.555c.127-.963-.499-1.901-1.476-2.15l.007-.019a.884.884 0 01-.653-1.087.892.892 0 01.826-.671zm3.426 1.206l13.062 3.297-.265 1.034-13.062-3.297.265-1.034zm-4.146 1.574c.089 0 .18.006.272.03.49.125.776.6.65 1.087l1.035.255-.222.856-1.92-.487v.011a.882.882 0 01-.638-1.08.893.893 0 01.826-.672h-.003z"/></symbol><symbol id="icon-outlink" viewBox="0 0 29.062 32.062"><path d="M25.457 32.061H3.6a3.6 3.6 0 01-3.6-3.6V3.6A3.6 3.6 0 013.6 0h9.006v3.7h-6.78a2.041 2.041 0 00-2.041 2.041v20.583a2.041 2.041 0 002.041 2.041h17.4a2.041 2.041 0 002.041-2.041V15.37h3.787v13.089a3.6 3.6 0 01-3.597 3.602zm-.185-25.807l-9.809 9.809-2.717-2.717L22.4 3.7h-7.27V0h13.929v12.848h-3.787V6.254z" fill-rule="evenodd"/></symbol><symbol id="icon-star-empty" viewBox="0 0 19.969 19"><path d="M10.99.69c.409.734 1.749 3.158 2.169 3.88a1.567 1.567 0 001.537 1.025c.839.161 3.806.743 4.316.837a1.049 1.049 0 01.884.742 1 1 0 01-.295 1.126c-.38.409-2.3 2.478-3.053 3.283-.812.865-.642.927-.526 1.882s.353 2.912.453 3.775a1.4 1.4 0 01-.295 1.5 1.377 1.377 0 01-1.632-.052c-.849-.395-3.051-1.391-3.758-1.736a1.434 1.434 0 00-1.716.021c-.648.321-2.816 1.316-3.832 1.778a1.275 1.275 0 01-1.379.063 1.17 1.17 0 01-.484-1.265c.152-.943.4-3.2.537-4.256a1.544 1.544 0 00-.621-1.8C2.738 10.9 1.087 9.16.569 8.6a1.307 1.307 0 01-.547-1.37 1.093 1.093 0 011.063-.837c.864-.162 3.69-.706 4.432-.857a1.431 1.431 0 001.305-1.071c.337-.619 1.784-3.209 2.084-3.733A1.163 1.163 0 019.958 0a1.107 1.107 0 011.032.69zM7.297 5.156c.42-.755 1.814-3.236 2.09-3.73s.314-.487.582-.505a.678.678 0 01.571.515c.136.248 1.653 2.973 2.111 3.76.544.936.875.923 1.886 1.122.921.181 3.076.593 3.742.728s.68.189.765.435a.738.738 0 01-.347.788c-.348.362-2.29 2.421-2.845 3.012a1.757 1.757 0 00-.591 1.86c.108.863.4 3.335.489 3.993s.059.768-.143.93a1.029 1.029 0 01-1.05-.182 455.245 455.245 0 01-3.61-1.668 2.078 2.078 0 00-2.07.051c-.669.3-3.175 1.465-3.691 1.7s-.646.293-.918.081a.769.769 0 01-.122-.819c.039-.308.409-3.31.5-4a1.832 1.832 0 00-.683-2.052c-.682-.718-2.294-2.442-2.774-2.946S.808 7.666.842 7.5a.637.637 0 01.581-.414c.417-.079 3.4-.665 4.109-.788a1.9 1.9 0 001.765-1.142z" fill-rule="evenodd"/></symbol><symbol id="icon-star-filled" viewBox="0 0 19.969 19"><path d="M10.99.69c.409.734 1.749 3.158 2.169 3.88a1.567 1.567 0 001.537 1.025c.839.161 3.806.743 4.316.837a1.049 1.049 0 01.884.742 1 1 0 01-.295 1.126c-.38.409-2.3 2.478-3.053 3.283-.812.865-.642.927-.526 1.882s.353 2.912.453 3.775a1.4 1.4 0 01-.295 1.5 1.377 1.377 0 01-1.632-.052c-.849-.395-3.051-1.391-3.758-1.736a1.434 1.434 0 00-1.716.021c-.648.321-2.816 1.316-3.832 1.778a1.275 1.275 0 01-1.379.063 1.17 1.17 0 01-.484-1.265c.152-.943.4-3.2.537-4.256a1.544 1.544 0 00-.621-1.8C2.738 10.9 1.087 9.16.569 8.6a1.307 1.307 0 01-.547-1.37 1.093 1.093 0 011.063-.837c.864-.162 3.69-.706 4.432-.857a1.431 1.431 0 001.305-1.071c.337-.619 1.784-3.209 2.084-3.733A1.163 1.163 0 019.958 0a1.107 1.107 0 011.032.69z" fill-rule="evenodd"/></symbol><symbol id="icon-talk" viewBox="0 0 28.125 28.156"><path d="M1.712 0H20.95c1.941 0 2.19.985 2.19 2.122v4.929h3.492a1.579 1.579 0 011.506 1.78v17.527a1.724 1.724 0 01-2.944 1.3c-1.319-1.114-6.3-5.477-6.3-5.477H7.942c-1.349 0-1.986-.541-1.986-1.917v-3.628s-1.4 1.462-2.875 2.875S0 20.005 0 18.621V1.712A1.688 1.688 0 011.712 0zm1.643 3.355h16.431v3.56H7.873a1.721 1.721 0 00-1.917 1.78v3.149l-2.6 2.739V3.355zM24.715 22.8V10.269h-15.4v8.558h9.722a2.217 2.217 0 011.917.685c.638.606 3.761 3.288 3.761 3.288z" fill-rule="evenodd"/></symbol><symbol id="icon-tgm" viewBox="0 0 31 23"><path d="M12.164 15.159l-.513 6.421c.734 0 1.052-.28 1.433-.617l3.44-2.927 7.127 4.647c1.307.649 2.229.307 2.58-1.07l4.68-19.518v-.002C31.327.373 30.214-.3 28.94.123L1.44 9.495c-1.877.649-1.848 1.58-.319 2.002l7.03 1.947 16.332-9.098c.768-.453 1.467-.202.892.251l-13.21 10.56z"/></symbol><symbol id="icon-time" viewBox="0 0 27.781 27.781"><path d="M13.893 0A13.893 13.893 0 110 13.893 13.892 13.892 0 0113.893 0zm0 1.737A12.156 12.156 0 111.737 13.893 12.155 12.155 0 0113.893 1.737zm-.9 3.5h1.744v8.3l4.932 4.992-1.2 1.2-5.473-5.473V5.232z" fill-rule="evenodd"/></symbol><symbol id="icon-twt" viewBox="0 0 22 18"><path d="M6.91 17.876c8.303 0 12.845-6.88 12.845-12.834 0-.193 0-.388-.009-.58A9.192 9.192 0 0022 2.121a9.154 9.154 0 01-2.597.711 4.54 4.54 0 001.99-2.498 8.983 8.983 0 01-2.87 1.09 4.518 4.518 0 00-7.695 4.117A12.822 12.822 0 011.524.827a4.522 4.522 0 001.4 6.026A4.57 4.57 0 01.88 6.292v.061a4.521 4.521 0 003.619 4.425c-.387.107-.788.16-1.19.158-.283.001-.565-.025-.844-.078a4.515 4.515 0 004.218 3.13 9.058 9.058 0 01-5.61 1.936A8.697 8.697 0 010 15.862a12.849 12.849 0 006.91 2.014z"/></symbol><symbol id="icon-user" viewBox="0 0 29 29"><path d="M25.651 23.749a14.484 14.484 0 002.84-13.063A14.484 14.484 0 0019.422.86a14.511 14.511 0 00-13.26 1.775A14.492 14.492 0 000 14.501c0 3.382 1.194 6.656 3.37 9.248l-.021.017c.072.087.155.162.23.248.093.107.194.207.29.31.29.315.589.618.902.901.095.087.194.168.29.251.332.286.673.557 1.026.81.046.031.087.071.133.104v-.013a14.416 14.416 0 0016.583 0v.013c.046-.033.086-.073.133-.104.352-.254.694-.524 1.026-.81.096-.083.195-.165.29-.25.313-.285.611-.587.902-.901.096-.104.196-.204.29-.311.073-.086.158-.16.23-.249l-.023-.016zM14.511 6.216a4.667 4.667 0 014.308 2.877 4.656 4.656 0 01-1.01 5.079 4.666 4.666 0 01-7.963-3.296 4.658 4.658 0 014.664-4.66zM6.225 23.749a5.18 5.18 0 015.175-5.105h6.219a5.18 5.18 0 015.175 5.105 12.381 12.381 0 01-16.569 0z"/></symbol><symbol id="icon-view" viewBox="0 0 14 11"><path d="M13.426 5.36c-.022-.048-.476-1.131-1.493-2.215C10.916 2.06 9.373.93 7 .93c-2.373 0-3.992 1.2-4.933 2.215C1.127 4.158.597 5.312.574 5.359a.354.354 0 000 .282c.022.046.476 1.13 1.493 2.214C3.084 8.94 4.627 10.07 7 10.07c2.373 0 3.992-1.2 4.933-2.215.94-1.013 1.471-2.168 1.493-2.214a.354.354 0 000-.282zM7 9.366c-1.717 0-3.216-.668-4.452-1.986A7.831 7.831 0 011.241 5.5a7.831 7.831 0 011.307-1.88C3.784 2.3 5.283 1.632 7 1.632s3.216.668 4.452 1.986A7.828 7.828 0 0112.759 5.5c-.35.715-2.095 3.867-5.759 3.867zm0-6.562c-.497 0-.984.158-1.398.454a2.664 2.664 0 00-.926 1.21 2.875 2.875 0 00-.143 1.557 2.76 2.76 0 00.688 1.38c.352.377.8.634 1.288.738.488.104.994.05 1.454-.154.46-.204.852-.55 1.129-.993.276-.443.424-.964.424-1.497 0-.715-.265-1.4-.737-1.906A2.434 2.434 0 007 2.804zm0 4.687c-.368 0-.727-.117-1.033-.336a1.97 1.97 0 01-.685-.894 2.125 2.125 0 01-.106-1.15 2.04 2.04 0 01.51-1.02c.26-.28.59-.469.951-.546.361-.077.735-.037 1.075.113.34.151.63.407.834.734.204.328.313.713.313 1.107a2.072 2.072 0 01-.546 1.407c-.348.373-.82.584-1.313.585z" fill-opacity="0.67"/></symbol><symbol id="icon-vk" viewBox="0 0 27 16"><path d="M25.942 16h-2.946c-1.116 0-1.46-.88-3.466-2.903-1.744-1.681-2.516-1.904-2.946-1.904-.607 0-.78.17-.78.998v2.647c0 .71-.224 1.137-2.114 1.137-3.124 0-6.59-1.88-9.021-5.38C1.003 5.465 0 1.622 0 .827 0 .4.171 0 .997 0h2.952c.746 0 1.03.342 1.32 1.136 1.46 4.191 3.891 7.862 4.894 7.862.37 0 .541-.17.541-1.11V3.56C10.591 1.564 9.535 1.392 9.535.684c0-.342.284-.684.74-.684h4.642c.627 0 .858.342.858 1.077v5.84c0 .63.284.853.455.853.37 0 .688-.223 1.373-.907 2.12-2.365 3.64-6.01 3.64-6.01.197-.428.541-.828 1.288-.828h2.952c.885 0 1.083.453.885 1.084-.37 1.707-3.983 6.778-3.983 6.778-.31.512-.43.735 0 1.307.317.427 1.348 1.314 2.034 2.108 1.262 1.425 2.232 2.62 2.49 3.448.29.821-.138 1.249-.971 1.249l.004.001z"/></symbol><symbol id="icon-zoom" viewBox="0 0 29 29"><path d="M11.49 0C5.151 0 0 5.034 0 11.229c0 6.194 5.151 11.228 11.49 11.228 2.508 0 4.827-.79 6.717-2.126L27.099 29 29 27.142l-8.787-8.607a11.03 11.03 0 002.767-7.306C22.98 5.034 17.83 0 11.49 0zm0 1.321c5.608 0 10.139 4.427 10.139 9.908 0 5.48-4.531 9.907-10.139 9.907S1.352 16.709 1.352 11.229 5.882 1.32 11.49 1.32z"/></symbol> <view id="icon-arr-left-view-purple" viewBox="0 0 14 24"/><view id="icon-arr-left-view-grey" viewBox="0 34 14 24"/><view id="icon-arr-left-view-white" viewBox="0 68 14 24"/><view id="icon-arr-left-view-black" viewBox="0 102 14 24"/><view id="icon-arr-right-view-purple" viewBox="0 136 13 24"/><view id="icon-arr-right-view-grey" viewBox="0 170 13 24"/><view id="icon-arr-right-view-white" viewBox="0 204 13 24"/><view id="icon-arr-right-view-black" viewBox="0 238 13 24"/><view id="icon-arrow-view-purple" viewBox="0 272 201 16"/><view id="icon-arrow-view-grey" viewBox="0 298 201 16"/><view id="icon-arrow-view-white" viewBox="0 324 201 16"/><view id="icon-arrow-view-black" viewBox="0 350 201 16"/><view id="icon-calendar-view-purple" viewBox="0 376 26 25"/><view id="icon-calendar-view-grey" viewBox="0 411 26 25"/><view id="icon-calendar-view-white" viewBox="0 446 26 25"/><view id="icon-calendar-view-black" viewBox="0 481 26 25"/><view id="icon-card-view-purple" viewBox="0 516 25 21"/><view id="icon-card-view-grey" viewBox="0 547 25 21"/><view id="icon-card-view-white" viewBox="0 578 25 21"/><view id="icon-card-view-black" viewBox="0 609 25 21"/><view id="icon-close-view-purple" viewBox="0 640 37 37"/><view id="icon-close-view-grey" viewBox="0 687 37 37"/><view id="icon-close-view-white" viewBox="0 734 37 37"/><view id="icon-close-view-black" viewBox="0 781 37 37"/><view id="icon-copy-view-purple" viewBox="0 828 50 48"/><view id="icon-copy-view-grey" viewBox="0 886 50 48"/><view id="icon-copy-view-white" viewBox="0 944 50 48"/><view id="icon-copy-view-black" viewBox="0 1002 50 48"/><view id="icon-gear-view-purple" viewBox="0 1060 30 30"/><view id="icon-gear-view-grey" viewBox="0 1100 30 30"/><view id="icon-gear-view-white" viewBox="0 1140 30 30"/><view id="icon-gear-view-black" viewBox="0 1180 30 30"/><view id="icon-geo-view-purple" viewBox="0 1220 21 27"/><view id="icon-geo-view-grey" viewBox="0 1257 21 27"/><view id="icon-geo-view-white" viewBox="0 1294 21 27"/><view id="icon-geo-view-black" viewBox="0 1331 21 27"/><view id="icon-headphone-view-purple" viewBox="0 1368 29 29"/><view id="icon-headphone-view-grey" viewBox="0 1407 29 29"/><view id="icon-headphone-view-white" viewBox="0 1446 29 29"/><view id="icon-headphone-view-black" viewBox="0 1485 29 29"/><view id="icon-image-view-purple" viewBox="0 1524 41 41"/><view id="icon-image-view-grey" viewBox="0 1575 41 41"/><view id="icon-image-view-white" viewBox="0 1626 41 41"/><view id="icon-image-view-black" viewBox="0 1677 41 41"/><view id="icon-inst-view-purple" viewBox="0 1728 28 28"/><view id="icon-inst-view-grey" viewBox="0 1766 28 28"/><view id="icon-inst-view-white" viewBox="0 1804 28 28"/><view id="icon-inst-view-black" viewBox="0 1842 28 28"/><view id="icon-menu-close-view-purple" viewBox="0 1880 30 30"/><view id="icon-menu-close-view-grey" viewBox="0 1920 30 30"/><view id="icon-menu-close-view-white" viewBox="0 1960 30 30"/><view id="icon-menu-close-view-black" viewBox="0 2000 30 30"/><view id="icon-menu-open-view-purple" viewBox="0 2040 32 19"/><view id="icon-menu-open-view-grey" viewBox="0 2069 32 19"/><view id="icon-menu-open-view-white" viewBox="0 2098 32 19"/><view id="icon-menu-open-view-black" viewBox="0 2127 32 19"/><view id="icon-msg-view-purple" viewBox="0 2156 16 17"/><view id="icon-msg-view-grey" viewBox="0 2183 16 17"/><view id="icon-msg-view-white" viewBox="0 2210 16 17"/><view id="icon-msg-view-black" viewBox="0 2237 16 17"/><view id="icon-notepad-view-purple" viewBox="0 2264 29 28"/><view id="icon-notepad-view-grey" viewBox="0 2302 29 28"/><view id="icon-notepad-view-white" viewBox="0 2340 29 28"/><view id="icon-notepad-view-black" viewBox="0 2378 29 28"/><view id="icon-outlink-view-purple" viewBox="0 2416 29.062 32.062"/><view id="icon-outlink-view-grey" viewBox="0 2458.062 29.062 32.062"/><view id="icon-outlink-view-white" viewBox="0 2500.124 29.062 32.062"/><view id="icon-outlink-view-black" viewBox="0 2542.186 29.062 32.062"/><view id="icon-star-empty-view-purple" viewBox="0 2584.248 19.969 19"/><view id="icon-star-empty-view-grey" viewBox="0 2613.248 19.969 19"/><view id="icon-star-empty-view-white" viewBox="0 2642.248 19.969 19"/><view id="icon-star-empty-view-black" viewBox="0 2671.248 19.969 19"/><view id="icon-star-filled-view-purple" viewBox="0 2700.248 19.969 19"/><view id="icon-star-filled-view-grey" viewBox="0 2729.248 19.969 19"/><view id="icon-star-filled-view-white" viewBox="0 2758.248 19.969 19"/><view id="icon-star-filled-view-black" viewBox="0 2787.248 19.969 19"/><view id="icon-talk-view-purple" viewBox="0 2816.248 28.125 28.156"/><view id="icon-talk-view-grey" viewBox="0 2854.404 28.125 28.156"/><view id="icon-talk-view-white" viewBox="0 2892.56 28.125 28.156"/><view id="icon-talk-view-black" viewBox="0 2930.716 28.125 28.156"/><view id="icon-tgm-view-purple" viewBox="0 2968.872 31 23"/><view id="icon-tgm-view-grey" viewBox="0 3001.872 31 23"/><view id="icon-tgm-view-white" viewBox="0 3034.872 31 23"/><view id="icon-tgm-view-black" viewBox="0 3067.872 31 23"/><view id="icon-time-view-purple" viewBox="0 3100.872 27.781 27.781"/><view id="icon-time-view-grey" viewBox="0 3138.653 27.781 27.781"/><view id="icon-time-view-white" viewBox="0 3176.4339999999997 27.781 27.781"/><view id="icon-time-view-black" viewBox="0 3214.2149999999997 27.781 27.781"/><view id="icon-twt-view-purple" viewBox="0 3251.9959999999996 22 18"/><view id="icon-twt-view-grey" viewBox="0 3279.9959999999996 22 18"/><view id="icon-twt-view-white" viewBox="0 3307.9959999999996 22 18"/><view id="icon-twt-view-black" viewBox="0 3335.9959999999996 22 18"/><view id="icon-user-view-purple" viewBox="0 3363.9959999999996 29 29"/><view id="icon-user-view-grey" viewBox="0 3402.9959999999996 29 29"/><view id="icon-user-view-white" viewBox="0 3441.9959999999996 29 29"/><view id="icon-user-view-black" viewBox="0 3480.9959999999996 29 29"/><view id="icon-view-view-purple" viewBox="0 3519.9959999999996 14 11"/><view id="icon-view-view-grey" viewBox="0 3540.9959999999996 14 11"/><view id="icon-view-view-white" viewBox="0 3561.9959999999996 14 11"/><view id="icon-view-view-black" viewBox="0 3582.9959999999996 14 11"/><view id="icon-vk-view-purple" viewBox="0 3603.9959999999996 27 16"/><view id="icon-vk-view-grey" viewBox="0 3629.9959999999996 27 16"/><view id="icon-vk-view-white" viewBox="0 3655.9959999999996 27 16"/><view id="icon-vk-view-black" viewBox="0 3681.9959999999996 27 16"/><view id="icon-zoom-view-purple" viewBox="0 3707.9959999999996 29 29"/><view id="icon-zoom-view-grey" viewBox="0 3746.9959999999996 29 29"/><view id="icon-zoom-view-white" viewBox="0 3785.9959999999996 29 29"/><view id="icon-zoom-view-black" viewBox="0 3824.9959999999996 29 29"/> <use xlink:href="#icon-arr-left" x="0" y="0" width="14" height="24" style="fill:#BB2649"/><use xlink:href="#icon-arr-left" x="0" y="34" width="14" height="24" style="fill:#737373"/><use xlink:href="#icon-arr-left" x="0" y="68" width="14" height="24" style="fill:#ffffff"/><use xlink:href="#icon-arr-left" x="0" y="102" width="14" height="24" style="fill:#000000"/><use xlink:href="#icon-arr-right" x="0" y="136" width="13" height="24" style="fill:#BB2649"/><use xlink:href="#icon-arr-right" x="0" y="170" width="13" height="24" style="fill:#737373"/><use xlink:href="#icon-arr-right" x="0" y="204" width="13" height="24" style="fill:#ffffff"/><use xlink:href="#icon-arr-right" x="0" y="238" width="13" height="24" style="fill:#000000"/><use xlink:href="#icon-arrow" x="0" y="272" width="201" height="16" style="fill:#BB2649"/><use xlink:href="#icon-arrow" x="0" y="298" width="201" height="16" style="fill:#737373"/><use xlink:href="#icon-arrow" x="0" y="324" width="201" height="16" style="fill:#ffffff"/><use xlink:href="#icon-arrow" x="0" y="350" width="201" height="16" style="fill:#000000"/><use xlink:href="#icon-calendar" x="0" y="376" width="26" height="25" style="fill:#BB2649"/><use xlink:href="#icon-calendar" x="0" y="411" width="26" height="25" style="fill:#737373"/><use xlink:href="#icon-calendar" x="0" y="446" width="26" height="25" style="fill:#ffffff"/><use xlink:href="#icon-calendar" x="0" y="481" width="26" height="25" style="fill:#000000"/><use xlink:href="#icon-card" x="0" y="516" width="25" height="21" style="fill:#BB2649"/><use xlink:href="#icon-card" x="0" y="547" width="25" height="21" style="fill:#737373"/><use xlink:href="#icon-card" x="0" y="578" width="25" height="21" style="fill:#ffffff"/><use xlink:href="#icon-card" x="0" y="609" width="25" height="21" style="fill:#000000"/><use xlink:href="#icon-close" x="0" y="640" width="37" height="37" style="fill:#BB2649"/><use xlink:href="#icon-close" x="0" y="687" width="37" height="37" style="fill:#737373"/><use xlink:href="#icon-close" x="0" y="734" width="37" height="37" style="fill:#ffffff"/><use xlink:href="#icon-close" x="0" y="781" width="37" height="37" style="fill:#000000"/><use xlink:href="#icon-copy" x="0" y="828" width="50" height="48" style="fill:#BB2649"/><use xlink:href="#icon-copy" x="0" y="886" width="50" height="48" style="fill:#737373"/><use xlink:href="#icon-copy" x="0" y="944" width="50" height="48" style="fill:#ffffff"/><use xlink:href="#icon-copy" x="0" y="1002" width="50" height="48" style="fill:#000000"/><use xlink:href="#icon-gear" x="0" y="1060" width="30" height="30" style="fill:#BB2649"/><use xlink:href="#icon-gear" x="0" y="1100" width="30" height="30" style="fill:#737373"/><use xlink:href="#icon-gear" x="0" y="1140" width="30" height="30" style="fill:#ffffff"/><use xlink:href="#icon-gear" x="0" y="1180" width="30" height="30" style="fill:#000000"/><use xlink:href="#icon-geo" x="0" y="1220" width="21" height="27" style="fill:#BB2649"/><use xlink:href="#icon-geo" x="0" y="1257" width="21" height="27" style="fill:#737373"/><use xlink:href="#icon-geo" x="0" y="1294" width="21" height="27" style="fill:#ffffff"/><use xlink:href="#icon-geo" x="0" y="1331" width="21" height="27" style="fill:#000000"/><use xlink:href="#icon-headphone" x="0" y="1368" width="29" height="29" style="fill:#BB2649"/><use xlink:href="#icon-headphone" x="0" y="1407" width="29" height="29" style="fill:#737373"/><use xlink:href="#icon-headphone" x="0" y="1446" width="29" height="29" style="fill:#ffffff"/><use xlink:href="#icon-headphone" x="0" y="1485" width="29" height="29" style="fill:#000000"/><use xlink:href="#icon-image" x="0" y="1524" width="41" height="41" style="fill:#BB2649"/><use xlink:href="#icon-image" x="0" y="1575" width="41" height="41" style="fill:#737373"/><use xlink:href="#icon-image" x="0" y="1626" width="41" height="41" style="fill:#ffffff"/><use xlink:href="#icon-image" x="0" y="1677" width="41" height="41" style="fill:#000000"/><use xlink:href="#icon-inst" x="0" y="1728" width="28" height="28" style="fill:#BB2649"/><use xlink:href="#icon-inst" x="0" y="1766" width="28" height="28" style="fill:#737373"/><use xlink:href="#icon-inst" x="0" y="1804" width="28" height="28" style="fill:#ffffff"/><use xlink:href="#icon-inst" x="0" y="1842" width="28" height="28" style="fill:#000000"/><use xlink:href="#icon-menu-close" x="0" y="1880" width="30" height="30" style="fill:#BB2649"/><use xlink:href="#icon-menu-close" x="0" y="1920" width="30" height="30" style="fill:#737373"/><use xlink:href="#icon-menu-close" x="0" y="1960" width="30" height="30" style="fill:#ffffff"/><use xlink:href="#icon-menu-close" x="0" y="2000" width="30" height="30" style="fill:#000000"/><use xlink:href="#icon-menu-open" x="0" y="2040" width="32" height="19" style="fill:#BB2649"/><use xlink:href="#icon-menu-open" x="0" y="2069" width="32" height="19" style="fill:#737373"/><use xlink:href="#icon-menu-open" x="0" y="2098" width="32" height="19" style="fill:#ffffff"/><use xlink:href="#icon-menu-open" x="0" y="2127" width="32" height="19" style="fill:#000000"/><use xlink:href="#icon-msg" x="0" y="2156" width="16" height="17" style="fill:#BB2649"/><use xlink:href="#icon-msg" x="0" y="2183" width="16" height="17" style="fill:#737373"/><use xlink:href="#icon-msg" x="0" y="2210" width="16" height="17" style="fill:#ffffff"/><use xlink:href="#icon-msg" x="0" y="2237" width="16" height="17" style="fill:#000000"/><use xlink:href="#icon-notepad" x="0" y="2264" width="29" height="28" style="fill:#BB2649"/><use xlink:href="#icon-notepad" x="0" y="2302" width="29" height="28" style="fill:#737373"/><use xlink:href="#icon-notepad" x="0" y="2340" width="29" height="28" style="fill:#ffffff"/><use xlink:href="#icon-notepad" x="0" y="2378" width="29" height="28" style="fill:#000000"/><use xlink:href="#icon-outlink" x="0" y="2416" width="29.062" height="32.062" style="fill:#BB2649"/><use xlink:href="#icon-outlink" x="0" y="2458.062" width="29.062" height="32.062" style="fill:#737373"/><use xlink:href="#icon-outlink" x="0" y="2500.124" width="29.062" height="32.062" style="fill:#ffffff"/><use xlink:href="#icon-outlink" x="0" y="2542.186" width="29.062" height="32.062" style="fill:#000000"/><use xlink:href="#icon-star-empty" x="0" y="2584.248" width="19.969" height="19" style="fill:#BB2649"/><use xlink:href="#icon-star-empty" x="0" y="2613.248" width="19.969" height="19" style="fill:#737373"/><use xlink:href="#icon-star-empty" x="0" y="2642.248" width="19.969" height="19" style="fill:#ffffff"/><use xlink:href="#icon-star-empty" x="0" y="2671.248" width="19.969" height="19" style="fill:#000000"/><use xlink:href="#icon-star-filled" x="0" y="2700.248" width="19.969" height="19" style="fill:#BB2649"/><use xlink:href="#icon-star-filled" x="0" y="2729.248" width="19.969" height="19" style="fill:#737373"/><use xlink:href="#icon-star-filled" x="0" y="2758.248" width="19.969" height="19" style="fill:#ffffff"/><use xlink:href="#icon-star-filled" x="0" y="2787.248" width="19.969" height="19" style="fill:#000000"/><use xlink:href="#icon-talk" x="0" y="2816.248" width="28.125" height="28.156" style="fill:#BB2649"/><use xlink:href="#icon-talk" x="0" y="2854.404" width="28.125" height="28.156" style="fill:#737373"/><use xlink:href="#icon-talk" x="0" y="2892.56" width="28.125" height="28.156" style="fill:#ffffff"/><use xlink:href="#icon-talk" x="0" y="2930.716" width="28.125" height="28.156" style="fill:#000000"/><use xlink:href="#icon-tgm" x="0" y="2968.872" width="31" height="23" style="fill:#BB2649"/><use xlink:href="#icon-tgm" x="0" y="3001.872" width="31" height="23" style="fill:#737373"/><use xlink:href="#icon-tgm" x="0" y="3034.872" width="31" height="23" style="fill:#ffffff"/><use xlink:href="#icon-tgm" x="0" y="3067.872" width="31" height="23" style="fill:#000000"/><use xlink:href="#icon-time" x="0" y="3100.872" width="27.781" height="27.781" style="fill:#BB2649"/><use xlink:href="#icon-time" x="0" y="3138.653" width="27.781" height="27.781" style="fill:#737373"/><use xlink:href="#icon-time" x="0" y="3176.4339999999997" width="27.781" height="27.781" style="fill:#ffffff"/><use xlink:href="#icon-time" x="0" y="3214.2149999999997" width="27.781" height="27.781" style="fill:#000000"/><use xlink:href="#icon-twt" x="0" y="3251.9959999999996" width="22" height="18" style="fill:#BB2649"/><use xlink:href="#icon-twt" x="0" y="3279.9959999999996" width="22" height="18" style="fill:#737373"/><use xlink:href="#icon-twt" x="0" y="3307.9959999999996" width="22" height="18" style="fill:#ffffff"/><use xlink:href="#icon-twt" x="0" y="3335.9959999999996" width="22" height="18" style="fill:#000000"/><use xlink:href="#icon-user" x="0" y="3363.9959999999996" width="29" height="29" style="fill:#BB2649"/><use xlink:href="#icon-user" x="0" y="3402.9959999999996" width="29" height="29" style="fill:#737373"/><use xlink:href="#icon-user" x="0" y="3441.9959999999996" width="29" height="29" style="fill:#ffffff"/><use xlink:href="#icon-user" x="0" y="3480.9959999999996" width="29" height="29" style="fill:#000000"/><use xlink:href="#icon-view" x="0" y="3519.9959999999996" width="14" height="11" style="fill:#BB2649"/><use xlink:href="#icon-view" x="0" y="3540.9959999999996" width="14" height="11" style="fill:#737373"/><use xlink:href="#icon-view" x="0" y="3561.9959999999996" width="14" height="11" style="fill:#ffffff"/><use xlink:href="#icon-view" x="0" y="3582.9959999999996" width="14" height="11" style="fill:#000000"/><use xlink:href="#icon-vk" x="0" y="3603.9959999999996" width="27" height="16" style="fill:#BB2649"/><use xlink:href="#icon-vk" x="0" y="3629.9959999999996" width="27" height="16" style="fill:#737373"/><use xlink:href="#icon-vk" x="0" y="3655.9959999999996" width="27" height="16" style="fill:#ffffff"/><use xlink:href="#icon-vk" x="0" y="3681.9959999999996" width="27" height="16" style="fill:#000000"/><use xlink:href="#icon-zoom" x="0" y="3707.9959999999996" width="29" height="29" style="fill:#BB2649"/><use xlink:href="#icon-zoom" x="0" y="3746.9959999999996" width="29" height="29" style="fill:#737373"/><use xlink:href="#icon-zoom" x="0" y="3785.9959999999996" width="29" height="29" style="fill:#ffffff"/><use xlink:href="#icon-zoom" x="0" y="3824.9959999999996" width="29" height="29" style="fill:#000000"/></svg>