<svg xmlns="http://www.w3.org/2000/svg" xmlns:xlink="http://www.w3.org/1999/xlink"><symbol id="icon-arr-left" viewBox="0 0 15 26"><path fill-rule="evenodd" clip-rule="evenodd" d="M0 12.847l2.341 2.341.009-.008 9.941 9.941 2.341-2.34-9.941-9.942 9.941-9.941-2.34-2.342-9.942 9.942-.009-.009L0 12.83l.009.009-.009.008z"/></symbol><symbol id="icon-arr-right" viewBox="0 0 15 26"><path fill-rule="evenodd" clip-rule="evenodd" d="M14.632 12.83l-2.341-2.34-.008.008L2.34.556 0 2.898l9.941 9.94L0 22.78l2.341 2.341 9.941-9.941.009.009 2.341-2.342-.008-.008.008-.009z"/></symbol><symbol id="icon-clock" viewBox="0 0 28.406 28.25"><path d="M14.2.006A14.125 14.125 0 11-.016 14.131 14.17 14.17 0 0114.2.006zm0 2.106A12.019 12.019 0 112.103 14.131 12.058 12.058 0 0114.2 2.112zm4.142 16.624a.92.92 0 001.282-.221l.212-.3a.92.92 0 00-.221-1.282l-4.265-3.011v-6.37a.92.92 0 00-.92-.92h-.368a.92.92 0 00-.92.92v7.514z" fill-rule="evenodd"/></symbol><symbol id="icon-close" viewBox="0 0 14 14"><path fill-rule="evenodd" clip-rule="evenodd" d="M.293.293a1 1 0 011.414 0L7 5.586 12.293.293a1 1 0 111.414 1.414L8.414 7l5.293 5.293a1 1 0 01-1.414 1.414L7 8.414l-5.293 5.293a1 1 0 01-1.414-1.414L5.586 7 .293 1.707a1 1 0 010-1.414z"/></symbol><symbol id="icon-home" viewBox="0 0 31 31"><path d="M29.838 13.1a.71.71 0 01.156.992l-.034.046a.71.71 0 01-.992.156L15.891 4.771 2.814 14.3a.71.71 0 01-.992-.156l-.033-.044a.71.71 0 01.155-1L15.891 2.944zm-13.945 5.22a2.32 2.32 0 012.215 1.959V27.757a.708.708 0 00.258.548l.027.021a.708.708 0 00.425.141h7.464a.71.71 0 00.71-.71V15.172a.71.71 0 00-.71-.71h-.056a.71.71 0 00-.71.71v11.813h-5.931v-6.7c0-.392-.714-3.436-3.692-3.436h-.043c-2.978 0-3.692 3.044-3.692 3.436v6.7h-5.93V15.172a.71.71 0 00-.71-.71h-.057a.71.71 0 00-.71.71v12.58a.71.71 0 00.71.71h7.464a.708.708 0 00.425-.141l.027-.021a.708.708 0 00.258-.548v-7.468a2.32 2.32 0 012.215-1.959h.044z" fill-rule="evenodd"/></symbol><symbol id="icon-location" viewBox="0 0 21.906 29.219"><path d="M10.956-.001a10.955 10.955 0 0110.955 10.955c0 5.17-8 15.171-10.327 17.971a.812.812 0 01-1.256 0C8.001 26.125.001 16.125.001 10.955A10.955 10.955 0 0110.956-.001zm0 2.139a8.816 8.816 0 018.816 8.816c0 4.869-8.816 15.207-8.816 15.207S2.14 15.823 2.14 10.954a8.816 8.816 0 018.816-8.817zm0 4.5a4.319 4.319 0 11-4.319 4.319 4.319 4.319 0 014.319-4.323zm0 2.1a2.217 2.217 0 11-2.219 2.217 2.218 2.218 0 012.219-2.218z" fill-rule="evenodd"/></symbol><symbol id="icon-menu-close" viewBox="0 0 30 30"><path fill-rule="evenodd" stroke-width="3" d="M27.228 3.186L15.914 14.5l11.314 11.314-1.414 1.414L14.5 15.914 3.186 27.228l-1.414-1.414L13.086 14.5 1.772 3.186l1.414-1.414L14.5 13.086 25.814 1.772l1.414 1.414z"/></symbol><symbol id="icon-menu-open" viewBox="0 0 32 19"><path d="M0 16h32v3H0v-3zm0-8h32v3H0V8zm0-8h32v3H0V0z" fill-rule="evenodd"/></symbol><symbol id="icon-soc-fb" viewBox="0 0 10 18"><path fill-rule="evenodd" clip-rule="evenodd" d="M9.623.004L7.225 0C4.53 0 2.789 1.739 2.789 4.43v2.042H.377A.372.372 0 000 6.84V9.8c0 .203.169.367.377.367H2.79v7.467c0 .203.169.367.377.367h3.146a.372.372 0 00.378-.367v-7.467h2.82a.372.372 0 00.376-.367l.002-2.96c0-.097-.04-.19-.11-.26a.383.383 0 00-.268-.107H6.69V4.741c0-.832.203-1.255 1.317-1.255h1.616A.372.372 0 0010 3.119V.37a.372.372 0 00-.377-.367z"/></symbol><symbol id="icon-soc-inst" viewBox="0 0 18 18"><path fill-rule="evenodd" clip-rule="evenodd" d="M9 .5c2.309 0 2.598.01 3.505.051.904.041 1.522.185 2.063.395a4.166 4.166 0 011.505.98c.473.473.764.947.98 1.506.21.54.355 1.159.396 2.063.041.907.051 1.197.051 3.505 0 2.309-.01 2.598-.051 3.505-.041.904-.185 1.522-.395 2.063a4.167 4.167 0 01-.98 1.505 4.167 4.167 0 01-1.506.98c-.54.21-1.159.355-2.063.396-.907.041-1.197.051-3.505.051s-2.598-.01-3.505-.051c-.904-.041-1.522-.185-2.063-.395a4.167 4.167 0 01-1.505-.98 4.166 4.166 0 01-.98-1.506c-.21-.54-.355-1.159-.396-2.063C.51 11.598.5 11.308.5 9s.01-2.598.051-3.505c.041-.904.185-1.522.395-2.063a4.166 4.166 0 01.98-1.505 4.166 4.166 0 011.506-.98C3.972.736 4.591.591 5.495.55 6.402.51 6.692.5 9 .5zm-.003 11.33a2.833 2.833 0 100-5.665 2.833 2.833 0 000 5.665zm0-7.196a4.363 4.363 0 110 8.727 4.363 4.363 0 010-8.727zm5.859-.262a1.039 1.039 0 11-2.078 0 1.039 1.039 0 012.078 0z"/></symbol><symbol id="icon-soc-tgm" viewBox="0 0 22 22"><path d="M20.515 2.118L1.027 9.45c-1.33.52-1.322 1.245-.244 1.567l5.004 1.523 11.576-7.125c.547-.325 1.047-.15.636.205L8.62 13.878h-.002l.002.001-.345 5.031c.506 0 .729-.226 1.012-.493l2.43-2.305 5.056 3.642c.931.501 1.6.244 1.833-.841l3.318-15.257c.34-1.329-.52-1.93-1.409-1.538z"/></symbol><symbol id="icon-soc-tw" viewBox="0 0 18 16"><path fill-rule="evenodd" clip-rule="evenodd" d="M17.979 2.363a.088.088 0 00-.105-.024 7.152 7.152 0 01-1.687.516A3.777 3.777 0 0017.504.988a.09.09 0 00-.03-.098.089.089 0 00-.101-.007 7.177 7.177 0 01-2.245.874A3.745 3.745 0 0012.428.6c-2.066 0-3.746 1.696-3.746 3.781 0 .252.024.502.072.744A10.297 10.297 0 011.4 1.31a.09.09 0 00-.147.012 3.806 3.806 0 00-.507 1.9c0 1.16.522 2.243 1.41 2.958a3.557 3.557 0 01-1.307-.426.088.088 0 00-.088 0 .09.09 0 00-.045.077v.048A3.79 3.79 0 003.349 9.49c-.408.066-.83.062-1.245-.018a.09.09 0 00-.102.116A3.752 3.752 0 005.253 12.2a7.154 7.154 0 01-4.292 1.412c-.287 0-.577-.017-.861-.05a.09.09 0 00-.095.058.09.09 0 00.036.106A10.38 10.38 0 005.694 15.4c6.568 0 10.492-5.385 10.492-10.591 0-.145-.002-.29-.008-.433a7.51 7.51 0 001.807-1.905.091.091 0 00-.006-.108z"/></symbol><symbol id="icon-talk" viewBox="0 0 25 25"><path d="M11.775.626c6.2-.08 10.122 2.7 12.2 6.741a11.058 11.058 0 01-.626 10.125c-1.977 2.852-6.6 6.439-12.059 5.6a24.425 24.425 0 01-3.953-.939c-.638.539-6.069 2.569-7.2 2.133L0 23.834c1.126-1.3 1.408-2.8 1.849-4.863l.142-1.024-.882-1.394A9.855 9.855 0 01.085 10.41C1.06 5.5 4.171 2.623 8.589 1.166a11.957 11.957 0 013.186-.54zm-5.091 9.556a1.678 1.678 0 11-1.678 1.678 1.678 1.678 0 011.678-1.678zm5.835 0a1.678 1.678 0 11-1.678 1.678 1.678 1.678 0 011.678-1.678zm5.806 0a1.678 1.678 0 11-1.678 1.678 1.678 1.678 0 011.677-1.678z" fill-rule="evenodd"/></symbol><symbol id="icon-zoom" viewBox="0 0 33 31"><path d="M14.55 2.124c6.663-.09 10.64 3.4 12.455 8.094 1.594 4.126.287 10.023-2.27 12.2l.029.057 6.46 6.343-.024.082-1.314 1.3-.058-.029L23.4 23.8l-.087.029c-2.413 2.564-8.251 3.746-12.513 2.119a12.277 12.277 0 01.262-23.135 13.368 13.368 0 013.488-.689zm.15 2.124a11.343 11.343 0 00-2.386.4 10.236 10.236 0 00-6.751 6.229C2.9 17.7 8.863 25.534 16.034 24.6c4.406-.574 7.351-2.81 8.788-6.286 3.093-7.48-2.815-14.102-10.122-14.066z" fill-rule="evenodd"/></symbol> <view id="icon-arr-left-view-lil" viewBox="0 0 15 26"/><view id="icon-arr-left-view-purp" viewBox="0 36 15 26"/><view id="icon-arr-left-view-black" viewBox="0 72 15 26"/><view id="icon-arr-left-view-white" viewBox="0 108 15 26"/><view id="icon-arr-right-view-lil" viewBox="0 144 15 26"/><view id="icon-arr-right-view-purp" viewBox="0 180 15 26"/><view id="icon-arr-right-view-black" viewBox="0 216 15 26"/><view id="icon-arr-right-view-white" viewBox="0 252 15 26"/><view id="icon-clock-view-lil" viewBox="0 288 28.406 28.25"/><view id="icon-clock-view-purp" viewBox="0 326.25 28.406 28.25"/><view id="icon-clock-view-black" viewBox="0 364.5 28.406 28.25"/><view id="icon-clock-view-white" viewBox="0 402.75 28.406 28.25"/><view id="icon-close-view-lil" viewBox="0 441 14 14"/><view id="icon-close-view-purp" viewBox="0 465 14 14"/><view id="icon-close-view-black" viewBox="0 489 14 14"/><view id="icon-close-view-white" viewBox="0 513 14 14"/><view id="icon-home-view-lil" viewBox="0 537 31 31"/><view id="icon-home-view-purp" viewBox="0 578 31 31"/><view id="icon-home-view-black" viewBox="0 619 31 31"/><view id="icon-home-view-white" viewBox="0 660 31 31"/><view id="icon-location-view-lil" viewBox="0 701 21.906 29.219"/><view id="icon-location-view-purp" viewBox="0 740.219 21.906 29.219"/><view id="icon-location-view-black" viewBox="0 779.438 21.906 29.219"/><view id="icon-location-view-white" viewBox="0 818.657 21.906 29.219"/><view id="icon-menu-close-view-lil" viewBox="0 857.876 30 30"/><view id="icon-menu-close-view-purp" viewBox="0 897.876 30 30"/><view id="icon-menu-close-view-black" viewBox="0 937.876 30 30"/><view id="icon-menu-close-view-white" viewBox="0 977.876 30 30"/><view id="icon-menu-open-view-lil" viewBox="0 1017.876 32 19"/><view id="icon-menu-open-view-purp" viewBox="0 1046.876 32 19"/><view id="icon-menu-open-view-black" viewBox="0 1075.876 32 19"/><view id="icon-menu-open-view-white" viewBox="0 1104.876 32 19"/><view id="icon-soc-fb-view-lil" viewBox="0 1133.876 10 18"/><view id="icon-soc-fb-view-purp" viewBox="0 1161.876 10 18"/><view id="icon-soc-fb-view-black" viewBox="0 1189.876 10 18"/><view id="icon-soc-fb-view-white" viewBox="0 1217.876 10 18"/><view id="icon-soc-inst-view-lil" viewBox="0 1245.876 18 18"/><view id="icon-soc-inst-view-purp" viewBox="0 1273.876 18 18"/><view id="icon-soc-inst-view-black" viewBox="0 1301.876 18 18"/><view id="icon-soc-inst-view-white" viewBox="0 1329.876 18 18"/><view id="icon-soc-tgm-view-lil" viewBox="0 1357.876 22 22"/><view id="icon-soc-tgm-view-purp" viewBox="0 1389.876 22 22"/><view id="icon-soc-tgm-view-black" viewBox="0 1421.876 22 22"/><view id="icon-soc-tgm-view-white" viewBox="0 1453.876 22 22"/><view id="icon-soc-tw-view-lil" viewBox="0 1485.876 18 16"/><view id="icon-soc-tw-view-purp" viewBox="0 1511.876 18 16"/><view id="icon-soc-tw-view-black" viewBox="0 1537.876 18 16"/><view id="icon-soc-tw-view-white" viewBox="0 1563.876 18 16"/><view id="icon-talk-view-lil" viewBox="0 1589.876 25 25"/><view id="icon-talk-view-purp" viewBox="0 1624.876 25 25"/><view id="icon-talk-view-black" viewBox="0 1659.876 25 25"/><view id="icon-talk-view-white" viewBox="0 1694.876 25 25"/><view id="icon-zoom-view-lil" viewBox="0 1729.876 33 31"/><view id="icon-zoom-view-purp" viewBox="0 1770.876 33 31"/><view id="icon-zoom-view-black" viewBox="0 1811.876 33 31"/><view id="icon-zoom-view-white" viewBox="0 1852.876 33 31"/> <use xlink:href="#icon-arr-left" x="0" y="0" width="15" height="26" style="fill:#6456FF"/><use xlink:href="#icon-arr-left" x="0" y="36" width="15" height="26" style="fill:#D81B5D"/><use xlink:href="#icon-arr-left" x="0" y="72" width="15" height="26" style="fill:#000000"/><use xlink:href="#icon-arr-left" x="0" y="108" width="15" height="26" style="fill:#ffffff"/><use xlink:href="#icon-arr-right" x="0" y="144" width="15" height="26" style="fill:#6456FF"/><use xlink:href="#icon-arr-right" x="0" y="180" width="15" height="26" style="fill:#D81B5D"/><use xlink:href="#icon-arr-right" x="0" y="216" width="15" height="26" style="fill:#000000"/><use xlink:href="#icon-arr-right" x="0" y="252" width="15" height="26" style="fill:#ffffff"/><use xlink:href="#icon-clock" x="0" y="288" width="28.406" height="28.25" style="fill:#6456FF"/><use xlink:href="#icon-clock" x="0" y="326.25" width="28.406" height="28.25" style="fill:#D81B5D"/><use xlink:href="#icon-clock" x="0" y="364.5" width="28.406" height="28.25" style="fill:#000000"/><use xlink:href="#icon-clock" x="0" y="402.75" width="28.406" height="28.25" style="fill:#ffffff"/><use xlink:href="#icon-close" x="0" y="441" width="14" height="14" style="fill:#6456FF"/><use xlink:href="#icon-close" x="0" y="465" width="14" height="14" style="fill:#D81B5D"/><use xlink:href="#icon-close" x="0" y="489" width="14" height="14" style="fill:#000000"/><use xlink:href="#icon-close" x="0" y="513" width="14" height="14" style="fill:#ffffff"/><use xlink:href="#icon-home" x="0" y="537" width="31" height="31" style="fill:#6456FF"/><use xlink:href="#icon-home" x="0" y="578" width="31" height="31" style="fill:#D81B5D"/><use xlink:href="#icon-home" x="0" y="619" width="31" height="31" style="fill:#000000"/><use xlink:href="#icon-home" x="0" y="660" width="31" height="31" style="fill:#ffffff"/><use xlink:href="#icon-location" x="0" y="701" width="21.906" height="29.219" style="fill:#6456FF"/><use xlink:href="#icon-location" x="0" y="740.219" width="21.906" height="29.219" style="fill:#D81B5D"/><use xlink:href="#icon-location" x="0" y="779.438" width="21.906" height="29.219" style="fill:#000000"/><use xlink:href="#icon-location" x="0" y="818.657" width="21.906" height="29.219" style="fill:#ffffff"/><use xlink:href="#icon-menu-close" x="0" y="857.876" width="30" height="30" style="fill:#6456FF"/><use xlink:href="#icon-menu-close" x="0" y="897.876" width="30" height="30" style="fill:#D81B5D"/><use xlink:href="#icon-menu-close" x="0" y="937.876" width="30" height="30" style="fill:#000000"/><use xlink:href="#icon-menu-close" x="0" y="977.876" width="30" height="30" style="fill:#ffffff"/><use xlink:href="#icon-menu-open" x="0" y="1017.876" width="32" height="19" style="fill:#6456FF"/><use xlink:href="#icon-menu-open" x="0" y="1046.876" width="32" height="19" style="fill:#D81B5D"/><use xlink:href="#icon-menu-open" x="0" y="1075.876" width="32" height="19" style="fill:#000000"/><use xlink:href="#icon-menu-open" x="0" y="1104.876" width="32" height="19" style="fill:#ffffff"/><use xlink:href="#icon-soc-fb" x="0" y="1133.876" width="10" height="18" style="fill:#6456FF"/><use xlink:href="#icon-soc-fb" x="0" y="1161.876" width="10" height="18" style="fill:#D81B5D"/><use xlink:href="#icon-soc-fb" x="0" y="1189.876" width="10" height="18" style="fill:#000000"/><use xlink:href="#icon-soc-fb" x="0" y="1217.876" width="10" height="18" style="fill:#ffffff"/><use xlink:href="#icon-soc-inst" x="0" y="1245.876" width="18" height="18" style="fill:#6456FF"/><use xlink:href="#icon-soc-inst" x="0" y="1273.876" width="18" height="18" style="fill:#D81B5D"/><use xlink:href="#icon-soc-inst" x="0" y="1301.876" width="18" height="18" style="fill:#000000"/><use xlink:href="#icon-soc-inst" x="0" y="1329.876" width="18" height="18" style="fill:#ffffff"/><use xlink:href="#icon-soc-tgm" x="0" y="1357.876" width="22" height="22" style="fill:#6456FF"/><use xlink:href="#icon-soc-tgm" x="0" y="1389.876" width="22" height="22" style="fill:#D81B5D"/><use xlink:href="#icon-soc-tgm" x="0" y="1421.876" width="22" height="22" style="fill:#000000"/><use xlink:href="#icon-soc-tgm" x="0" y="1453.876" width="22" height="22" style="fill:#ffffff"/><use xlink:href="#icon-soc-tw" x="0" y="1485.876" width="18" height="16" style="fill:#6456FF"/><use xlink:href="#icon-soc-tw" x="0" y="1511.876" width="18" height="16" style="fill:#D81B5D"/><use xlink:href="#icon-soc-tw" x="0" y="1537.876" width="18" height="16" style="fill:#000000"/><use xlink:href="#icon-soc-tw" x="0" y="1563.876" width="18" height="16" style="fill:#ffffff"/><use xlink:href="#icon-talk" x="0" y="1589.876" width="25" height="25" style="fill:#6456FF"/><use xlink:href="#icon-talk" x="0" y="1624.876" width="25" height="25" style="fill:#D81B5D"/><use xlink:href="#icon-talk" x="0" y="1659.876" width="25" height="25" style="fill:#000000"/><use xlink:href="#icon-talk" x="0" y="1694.876" width="25" height="25" style="fill:#ffffff"/><use xlink:href="#icon-zoom" x="0" y="1729.876" width="33" height="31" style="fill:#6456FF"/><use xlink:href="#icon-zoom" x="0" y="1770.876" width="33" height="31" style="fill:#D81B5D"/><use xlink:href="#icon-zoom" x="0" y="1811.876" width="33" height="31" style="fill:#000000"/><use xlink:href="#icon-zoom" x="0" y="1852.876" width="33" height="31" style="fill:#ffffff"/></svg>